<svg xmlns="http://www.w3.org/2000/svg" width="95.06" height="62.72" viewBox="0 0 95.06 62.72">
  <g id="Group_135" data-name="Group 135" transform="translate(-8.84)">
    <g id="Group_133" data-name="Group 133" transform="translate(20.381)">
      <path id="Path_106" data-name="Path 106" d="M165.741,51.183q4.219-8.938,5.952-12.743a27.518,27.518,0,0,1,3.678-5.761,25.49,25.49,0,0,1,2.281-2.5,21.215,21.215,0,0,1,2.573-2.123,18.242,18.242,0,0,1,5.858-2.719,20.542,20.542,0,0,1,6.213-.593q.775.04,1.544.119c.513.055,1.022.11,1.538.194a16.212,16.212,0,0,1,3.046.792,18.874,18.874,0,0,1,2.9,1.377c.932.539,1.826,1.145,2.7,1.744.438.3.871.6,1.305.889s.865.568,1.3.83a17.6,17.6,0,0,0,2.643,1.338,12.777,12.777,0,0,0,2.763.758c.469.075.949.121,1.421.15a13.414,13.414,0,0,0,1.416,0,12.7,12.7,0,0,0,2.784-.473A13.483,13.483,0,0,0,219,32a10.054,10.054,0,0,0,1.312-.605c7.346-4.249,14.182-16.588,14.109-16.464a25.445,25.445,0,0,0,1.832-3.293c.963-2.037,1.752-4.136,2.637-6.239l.44.018c-.548,2.255-2.261,4.378-3.022,6.56a58.141,58.141,0,0,1-2.454,5.88c-.979,2.083-2.418,5.773-2.97,6.617-.628.958-1.278,1.9-1.975,2.8a32.363,32.363,0,0,1-2.235,2.579,20.58,20.58,0,0,1-5.37,4.058,14.158,14.158,0,0,1-8.007,1.545,15.416,15.416,0,0,1-1.611-.256,14.361,14.361,0,0,1-3.126-1.046,16.022,16.022,0,0,1-2.834-1.733c-.221-.165-.438-.336-.652-.507s-.424-.348-.632-.524c-.416-.353-.824-.709-1.227-1.064-.805-.711-1.6-1.405-2.437-2.024-.415-.313-.844-.6-1.28-.867a13.3,13.3,0,0,0-1.349-.711,12.042,12.042,0,0,0-2.872-.89c-.49-.083-1-.152-1.5-.2s-1-.077-1.5-.08a14.873,14.873,0,0,0-5.864,1.094,17.526,17.526,0,0,0-2.689,1.379,23.127,23.127,0,0,0-2.474,1.8c-.2.16-.394.33-.589.5-.1.082-.192.173-.289.259s-.194.17-.288.259c-.188.178-.381.35-.565.535-.092.092-.187.181-.28.27l-.277.277c-.732.745-1.446,1.517-2.131,2.33-1.364,1.63-6.038,8.5-6.038,8.5s-3.5,6.411-4.518,8.438l-.537-.012Z" transform="translate(-165.454 -5.01)"/>
      <path id="Path_107" data-name="Path 107" d="M666.485,46.37h1.592L687.268,0h-1.282L668.711,41.736,651.566,0h-4" transform="translate(-612.486)" fill="#020202"/>
      <path id="Path_108" data-name="Path 108" d="M182.9.11h-1.592L161.78,46.465l1.333,0L180.676,4.744l17.491,41.737h3.9" transform="translate(-161.78 -0.102)" fill="#020202"/>
    </g>
    <g id="hide-text">
      <rect id="Rectangle_81" data-name="Rectangle 81" width="95" height="16" transform="translate(8.84 46.72)" fill="rgba(235,235,235,0)"/>
      <g id="Group_134" data-name="Group 134">
        <path id="Path_109" data-name="Path 109" d="M17.285-129.381H18.5l-4.322-10.088h-.314L9.374-129.381H9.96l1.651-3.711H15.7Zm-5.436-4.246,1.842-4.141,1.774,4.141Zm17.891-5.65H29.2v8.375l-7.735-8.567h-.318v10.088h.535v-8.293l7.735,8.567h.318Zm3.628,9.9H34.5v-9.9H33.368Zm11.682-9.9H37.824v.535h3.05v9.361H42v-9.361h3.05Zm7.8,9.9h1.213l-4.322-10.088h-.314L44.94-129.381h.586l1.651-3.711h4.084Zm-5.436-4.246,1.842-4.141,1.774,4.141Z" transform="translate(0 190.647)"/>
        <path id="Path_110" data-name="Path 110" d="M17.477-136.81l-3.732,8.387-3.594-8.387H8.938l4.322,10.088h.314l4.488-10.088Zm3.71,9.9h1.127v-9.9H21.187Zm11.525-9.9H25.485v.535h3.05v9.361h1.127v-9.361h3.05Zm8.057.535v-.535H35.75v9.9h5.018v-.528H36.878v-4.374h3.469v-.536H36.878v-3.923Zm3.153,9.361h1.127v-9.9H43.922Zm2.537-5.518,4.264-4.378h-.747l-4.656,4.78,4.361,5.116h1.481Z" transform="translate(52.739 188.325)"/>
      </g>
    </g>
  </g>
</svg>
