<svg id="Group_85" data-name="Group 85" xmlns="http://www.w3.org/2000/svg" width="147" height="46" viewBox="0 0 147 46">
  <path id="Path_31" data-name="Path 31" d="M3.184-4.992a1.539,1.539,0,0,0-1.266.57,2.438,2.438,0,0,0-.461,1.574A2.454,2.454,0,0,0,1.9-1.258a1.566,1.566,0,0,0,1.283.539,3.372,3.372,0,0,0,.7-.072q.34-.072.707-.186v.8A4.287,4.287,0,0,1,3.07.078a2.435,2.435,0,0,1-1.926-.76A3.178,3.178,0,0,1,.473-2.855,3.513,3.513,0,0,1,.8-4.414a2.328,2.328,0,0,1,.943-1.023,2.853,2.853,0,0,1,1.449-.355,3.6,3.6,0,0,1,1.617.367l-.336.777a5.016,5.016,0,0,0-.611-.24A2.2,2.2,0,0,0,3.184-4.992Zm7.711,2.129A3.124,3.124,0,0,1,10.2-.7,2.522,2.522,0,0,1,8.223.078,2.539,2.539,0,0,1,6.236-.689a3.143,3.143,0,0,1-.693-2.182,3.1,3.1,0,0,1,.7-2.172A2.569,2.569,0,0,1,8.23-5.8a2.517,2.517,0,0,1,1.969.77A3.121,3.121,0,0,1,10.895-2.863Zm-4.359,0a2.561,2.561,0,0,0,.426,1.6,1.5,1.5,0,0,0,1.262.545,1.5,1.5,0,0,0,1.256-.539A2.565,2.565,0,0,0,9.9-2.863a2.571,2.571,0,0,0-.42-1.594A1.485,1.485,0,0,0,8.23-5a1.516,1.516,0,0,0-1.268.543A2.536,2.536,0,0,0,6.535-2.863ZM12.121,0V-5.711h.934V-.8h2.418V0Zm9.406-2.863A3.124,3.124,0,0,1,20.83-.7a2.522,2.522,0,0,1-1.975.773,2.539,2.539,0,0,1-1.986-.768,3.143,3.143,0,0,1-.693-2.182,3.1,3.1,0,0,1,.7-2.172,2.569,2.569,0,0,1,1.99-.758,2.517,2.517,0,0,1,1.969.77A3.121,3.121,0,0,1,21.527-2.863Zm-4.359,0a2.561,2.561,0,0,0,.426,1.6,1.5,1.5,0,0,0,1.262.545,1.5,1.5,0,0,0,1.256-.539,2.565,2.565,0,0,0,.424-1.605,2.571,2.571,0,0,0-.42-1.594A1.485,1.485,0,0,0,18.863-5a1.516,1.516,0,0,0-1.268.543A2.536,2.536,0,0,0,17.168-2.863ZM27.23-5.711v3.7a2.192,2.192,0,0,1-.271,1.107,1.809,1.809,0,0,1-.785.73,2.729,2.729,0,0,1-1.229.256,2.3,2.3,0,0,1-1.652-.562,2.036,2.036,0,0,1-.59-1.547v-3.68h.938V-2.1a1.444,1.444,0,0,0,.328,1.043,1.353,1.353,0,0,0,1.008.336q1.32,0,1.32-1.387V-5.711Zm2.395,2.656h.648a1.481,1.481,0,0,0,.945-.242.879.879,0,0,0,.293-.719.774.774,0,0,0-.316-.7,1.735,1.735,0,0,0-.953-.211h-.617Zm0,.773V0h-.934V-5.711H30.3a2.651,2.651,0,0,1,1.637.414,1.487,1.487,0,0,1,.531,1.25,1.563,1.563,0,0,1-1.109,1.52L32.977,0H31.914L30.547-2.281Zm8.688-2.711a1.539,1.539,0,0,0-1.266.57,2.438,2.438,0,0,0-.461,1.574,2.454,2.454,0,0,0,.443,1.59,1.566,1.566,0,0,0,1.283.539,3.372,3.372,0,0,0,.7-.072q.34-.072.707-.186v.8A4.287,4.287,0,0,1,38.2.078a2.435,2.435,0,0,1-1.926-.76A3.178,3.178,0,0,1,35.6-2.855a3.513,3.513,0,0,1,.326-1.559,2.328,2.328,0,0,1,.943-1.023,2.853,2.853,0,0,1,1.449-.355,3.6,3.6,0,0,1,1.617.367l-.336.777a5.016,5.016,0,0,0-.611-.24A2.2,2.2,0,0,0,38.313-4.992ZM45.457,0H44.52V-2.574H41.887V0h-.934V-5.711h.934v2.336H44.52V-5.711h.938ZM50.5,0l-.57-1.586H47.75L47.191,0h-.984l2.137-5.734h1.016L51.5,0Zm-.816-2.391-.535-1.555q-.059-.156-.162-.492t-.143-.492a8.754,8.754,0,0,1-.309,1.051l-.516,1.488ZM57.008,0H55.863L53.055-4.551h-.031l.02.254q.055.727.055,1.328V0H52.25V-5.711h1.133l2.8,4.527h.023q-.008-.09-.031-.654t-.023-.881V-5.711h.855Zm3.844-3.1h2.1V-.23a6.082,6.082,0,0,1-.99.238,7.01,7.01,0,0,1-1.025.07,2.576,2.576,0,0,1-2-.768,3.091,3.091,0,0,1-.7-2.166,2.888,2.888,0,0,1,.793-2.158,2.981,2.981,0,0,1,2.184-.779,4.252,4.252,0,0,1,1.7.344l-.328.777a3.3,3.3,0,0,0-1.391-.32,1.873,1.873,0,0,0-1.445.574,2.222,2.222,0,0,0-.531,1.57,2.344,2.344,0,0,0,.479,1.592,1.735,1.735,0,0,0,1.377.545,4.526,4.526,0,0,0,.969-.113V-2.3H60.852Zm6.7,3.1h-3.23V-5.711h3.23v.789h-2.3v1.555H67.41v.781H65.258V-.793h2.3Z" transform="translate(47 25)"/>
  <g id="Colour-Change" transform="translate(5.943 4)">
    <path id="Path_2" data-name="Path 2" d="M4.69,4.69V38L38,4.69Z" transform="translate(-4.69 -4.69)"/>
    <path id="Path_3" data-name="Path 3" d="M4.69,4.69V38L38,4.69Z" transform="translate(-4.69 -4.69)" fill="none" stroke="#000" stroke-linecap="round" stroke-linejoin="round" stroke-width="1"/>
    <path id="Path_4" data-name="Path 4" d="M217.5,106.364V73.19L184.33,106.364Z" transform="translate(-184.007 -71.364)" fill="none" stroke="#000" stroke-linecap="round" stroke-linejoin="round" stroke-width="1"/>
  </g>
  <rect id="Rectangle_76" data-name="Rectangle 76" width="147" height="46" fill="#fff" opacity="0"/>
</svg>
