<svg id="Group_82" data-name="Group 82" xmlns="http://www.w3.org/2000/svg" width="104" height="46" viewBox="0 0 104 46">
  <path id="Path_34" data-name="Path 34" d="M3.984,0H.754V-5.711h3.23v.789h-2.3v1.555H3.84v.781H1.688V-.793h2.3ZM8.512-1.551a1.437,1.437,0,0,1-.551,1.2,2.4,2.4,0,0,1-1.52.434,3.626,3.626,0,0,1-1.586-.3v-.883a4.311,4.311,0,0,0,.83.289A3.52,3.52,0,0,0,6.5-.711a1.3,1.3,0,0,0,.818-.211.688.688,0,0,0,.264-.566.71.71,0,0,0-.242-.543,3.646,3.646,0,0,0-1-.527,2.645,2.645,0,0,1-1.1-.723,1.529,1.529,0,0,1-.32-.977A1.368,1.368,0,0,1,5.43-5.383a2.106,2.106,0,0,1,1.363-.41,4.006,4.006,0,0,1,1.633.359l-.3.762a3.567,3.567,0,0,0-1.359-.32,1.043,1.043,0,0,0-.687.2.648.648,0,0,0-.234.521.734.734,0,0,0,.094.381.958.958,0,0,0,.309.3,5.22,5.22,0,0,0,.773.371,4.232,4.232,0,0,1,.922.488,1.436,1.436,0,0,1,.43.512A1.539,1.539,0,0,1,8.512-1.551Zm4.4,0a1.437,1.437,0,0,1-.551,1.2,2.4,2.4,0,0,1-1.52.434,3.626,3.626,0,0,1-1.586-.3v-.883a4.311,4.311,0,0,0,.83.289,3.52,3.52,0,0,0,.818.105,1.3,1.3,0,0,0,.818-.211.688.688,0,0,0,.264-.566.71.71,0,0,0-.242-.543,3.646,3.646,0,0,0-1-.527,2.645,2.645,0,0,1-1.1-.723,1.529,1.529,0,0,1-.32-.977,1.368,1.368,0,0,1,.508-1.125,2.106,2.106,0,0,1,1.363-.41,4.006,4.006,0,0,1,1.633.359l-.3.762a3.567,3.567,0,0,0-1.359-.32,1.043,1.043,0,0,0-.687.2.648.648,0,0,0-.234.521.734.734,0,0,0,.094.381.958.958,0,0,0,.309.3,5.22,5.22,0,0,0,.773.371,4.232,4.232,0,0,1,.922.488,1.436,1.436,0,0,1,.43.512A1.539,1.539,0,0,1,12.91-1.551ZM17.246,0h-3.23V-5.711h3.23v.789h-2.3v1.555H17.1v.781H14.949V-.793h2.3Zm5.992,0H22.094L19.285-4.551h-.031l.02.254q.055.727.055,1.328V0H18.48V-5.711h1.133l2.8,4.527h.023q-.008-.09-.031-.654t-.023-.881V-5.711h.855Zm3.48,0h-.934V-4.91h-1.68v-.8H28.4v.8h-1.68Zm2.555,0V-5.711h.934V0Zm5.984,0-.57-1.586H32.5L31.945,0h-.984L33.1-5.734h1.016L36.25,0Zm-.816-2.391-.535-1.555q-.059-.156-.162-.492T33.6-4.93a8.754,8.754,0,0,1-.309,1.051l-.516,1.488ZM37,0V-5.711h.934V-.8h2.418V0Z" transform="translate(43 24)"/>
  <path id="Essential" d="M170.868,69.148a16.032,16.032,0,0,0,1,2.527m17.883-22.819a16.082,16.082,0,0,0-18.878,20.291m3.113,5.757A16.07,16.07,0,1,0,193.8,50.352" transform="translate(-163.7 -43.617)" fill="none" stroke="#000" stroke-linecap="round" stroke-linejoin="round" stroke-width="1"/>
  <rect id="Rectangle_76" data-name="Rectangle 76" width="104" height="46" fill="#fff" opacity="0"/>
</svg>
