<svg id="Group_77" data-name="Group 77" xmlns="http://www.w3.org/2000/svg" width="126" height="46" viewBox="0 0 126 46">
  <rect id="Rectangle_76" data-name="Rectangle 76" width="126" height="46" fill="#fff" opacity="0"/>
  <path id="Path_39" data-name="Path 39" d="M.754,0V-5.711h.934V-.8H4.105V0ZM5.09,0V-5.711h.934V0ZM10,0,8.344-4.77H8.313q.066,1.063.066,1.992V0H7.531V-5.711H8.848l1.586,4.543h.023L12.09-5.711h1.32V0h-.9V-2.824q0-.426.021-1.109t.037-.828h-.031L10.824,0Zm4.914,0V-5.711h.934V0Zm4.414,0h-.934V-4.91h-1.68v-.8h4.293v.8h-1.68Zm5.785,0h-3.23V-5.711h3.23v.789h-2.3v1.555h2.152v.781H22.816V-.793h2.3Zm5.879-2.91a2.846,2.846,0,0,1-.785,2.162A3.154,3.154,0,0,1,27.945,0h-1.6V-5.711h1.766a2.921,2.921,0,0,1,2.121.734A2.744,2.744,0,0,1,30.992-2.91Zm-.984.031q0-2.051-1.918-2.051h-.809V-.785h.664A1.837,1.837,0,0,0,30.008-2.879ZM37.527,0H34.3V-5.711h3.23v.789h-2.3v1.555h2.152v.781H35.23V-.793h2.3Zm5.879-2.91a2.846,2.846,0,0,1-.785,2.162A3.154,3.154,0,0,1,40.359,0h-1.6V-5.711h1.766a2.921,2.921,0,0,1,2.121.734A2.744,2.744,0,0,1,43.406-2.91Zm-.984.031q0-2.051-1.918-2.051H39.7V-.785h.664A1.837,1.837,0,0,0,42.422-2.879ZM44.633,0V-5.711h.934V0Zm4.414,0h-.934V-4.91h-1.68v-.8h4.293v.8h-1.68ZM51.6,0V-5.711h.934V0Zm7.512-2.863a3.124,3.124,0,0,1-.7,2.168,2.522,2.522,0,0,1-1.975.773,2.539,2.539,0,0,1-1.986-.768,3.143,3.143,0,0,1-.693-2.182,3.1,3.1,0,0,1,.7-2.172,2.569,2.569,0,0,1,1.99-.758,2.517,2.517,0,0,1,1.969.77A3.121,3.121,0,0,1,59.113-2.863Zm-4.359,0a2.561,2.561,0,0,0,.426,1.6,1.5,1.5,0,0,0,1.262.545A1.5,1.5,0,0,0,57.7-1.258a2.565,2.565,0,0,0,.424-1.605,2.571,2.571,0,0,0-.42-1.594A1.485,1.485,0,0,0,56.449-5a1.516,1.516,0,0,0-1.268.543A2.536,2.536,0,0,0,54.754-2.863ZM65.1,0H63.953L61.145-4.551h-.031l.02.254q.055.727.055,1.328V0H60.34V-5.711h1.133l2.8,4.527H64.3q-.008-.09-.031-.654t-.023-.881V-5.711H65.1Z" transform="translate(47 25)"/>
  <g id="Layer_2" transform="translate(-6.24 -6.81)">
    <g id="Layer_1-2" transform="translate(9.24 10.81)">
      <path id="Path_29" data-name="Path 29" d="M13.388,45.81H45.833v-32.6m-1.428-2.4H11.96v32.6M9.24,28.34H48.425" transform="translate(-9.24 -10.81)" fill="none" stroke="#1e1e1c" stroke-linecap="round" stroke-linejoin="round" stroke-width="1"/>
    </g>
  </g>
</svg>
