<svg id="Group_76" data-name="Group 76" xmlns="http://www.w3.org/2000/svg" xmlns:xlink="http://www.w3.org/1999/xlink" width="104" height="46" viewBox="0 0 104 46">
  <defs>
    <clipPath id="clip-path">
      <rect id="Rectangle_75" data-name="Rectangle 75" width="24.56" height="27.368" transform="translate(10.47 7.38)" fill="none"/>
    </clipPath>
  </defs>
  <rect id="Rectangle_76" data-name="Rectangle 76" width="104" height="46" fill="#fff" opacity="0"/>
  <path id="Path_40" data-name="Path 40" d="M-23.664,0h-.926V-5.711h3.223v.789h-2.3v1.785h2.152v.793h-2.152Zm7.809-5.711v3.7a2.192,2.192,0,0,1-.271,1.107,1.809,1.809,0,0,1-.785.73,2.729,2.729,0,0,1-1.229.256,2.3,2.3,0,0,1-1.652-.562,2.036,2.036,0,0,1-.59-1.547v-3.68h.938V-2.1a1.444,1.444,0,0,0,.328,1.043,1.353,1.353,0,0,0,1.008.336q1.32,0,1.32-1.387V-5.711ZM-9.637,0h-1.145L-13.59-4.551h-.031l.02.254q.055.727.055,1.328V0h-.848V-5.711h1.133l2.8,4.527h.023q-.008-.09-.031-.654t-.023-.881V-5.711h.855ZM-5.7-4.992a1.539,1.539,0,0,0-1.266.57,2.438,2.438,0,0,0-.461,1.574,2.454,2.454,0,0,0,.443,1.59A1.566,1.566,0,0,0-5.7-.719,3.372,3.372,0,0,0-5-.791q.34-.072.707-.186v.8A4.287,4.287,0,0,1-5.812.078a2.435,2.435,0,0,1-1.926-.76A3.178,3.178,0,0,1-8.41-2.855a3.513,3.513,0,0,1,.326-1.559,2.328,2.328,0,0,1,.943-1.023,2.853,2.853,0,0,1,1.449-.355,3.6,3.6,0,0,1,1.617.367l-.336.777a5.016,5.016,0,0,0-.611-.24A2.2,2.2,0,0,0-5.7-4.992ZM-1.086,0H-2.02V-4.91H-3.7v-.8H.594v.8h-1.68ZM1.469,0V-5.711H2.4V0ZM8.98-2.863A3.124,3.124,0,0,1,8.283-.7,2.522,2.522,0,0,1,6.309.078,2.539,2.539,0,0,1,4.322-.689a3.143,3.143,0,0,1-.693-2.182,3.1,3.1,0,0,1,.7-2.172A2.569,2.569,0,0,1,6.316-5.8a2.517,2.517,0,0,1,1.969.77A3.121,3.121,0,0,1,8.98-2.863Zm-4.359,0a2.561,2.561,0,0,0,.426,1.6,1.5,1.5,0,0,0,1.262.545,1.5,1.5,0,0,0,1.256-.539,2.565,2.565,0,0,0,.424-1.605,2.571,2.571,0,0,0-.42-1.594A1.485,1.485,0,0,0,6.316-5a1.516,1.516,0,0,0-1.268.543A2.536,2.536,0,0,0,4.621-2.863ZM14.965,0H13.82L11.012-4.551H10.98L11-4.3q.055.727.055,1.328V0h-.848V-5.711H11.34l2.8,4.527h.023q-.008-.09-.031-.654t-.023-.881V-5.711h.855Zm5.051,0-.57-1.586H17.262L16.7,0h-.984l2.137-5.734h1.016L21.008,0ZM19.2-2.391l-.535-1.555q-.059-.156-.162-.492t-.143-.492a8.755,8.755,0,0,1-.309,1.051l-.516,1.488ZM21.762,0V-5.711H22.7V-.8h2.418V0Z" transform="translate(59 27)"/>
  <g id="Group_75" data-name="Group 75" transform="translate(-5.03 2.62)" clip-path="url(#clip-path)">
    <path id="Path_30" data-name="Path 30" d="M21.579,34.733a13.436,13.436,0,0,0,0-26.873m5.478,4.181-16.106,9.3,16.106,9.215" transform="translate(-0.235 -0.235)" fill="none" stroke="#1d1e1b" stroke-linecap="round" stroke-linejoin="round" stroke-width="0.56"/>
  </g>
</svg>
