<svg xmlns="http://www.w3.org/2000/svg" width="1268.342" height="840.021" viewBox="0 0 1268.342 840.021"><g id="Group_3" data-name="Group 3" transform="translate(-40)"><g id="Group_1" data-name="Group 1" transform="translate(-14.02 -54.5)"><path id="Path_1" data-name="Path 1" d="M207.539,693.833C265.963,570.071,265.64,570.11,289.96,517.4c13.265-28.749,31.14-55.413,50.933-79.772a353.815,353.815,0,0,1,31.58-34.565,294.042,294.042,0,0,1,35.628-29.4,252.668,252.668,0,0,1,81.112-37.653c28.431-7.428,57.457-9.608,86.025-8.21q10.724.559,21.376,1.646c7.113.759,14.149,1.529,21.3,2.7A223.842,223.842,0,0,1,660.081,343.1a260.9,260.9,0,0,1,40.091,19.072c12.908,7.463,25.291,15.862,37.435,24.149,6.072,4.148,12.062,8.319,18.065,12.309s11.983,7.857,17.99,11.49a243.984,243.984,0,0,0,36.593,18.533,177.364,177.364,0,0,0,38.264,10.494c6.5,1.039,13.138,1.675,19.674,2.085a185.745,185.745,0,0,0,19.6.028A175.286,175.286,0,0,0,926.34,434.7a184.5,184.5,0,0,0,18.684-6.475,138.439,138.439,0,0,0,18.174-8.378c101.71-58.832,196.372-229.695,195.359-227.956,0,0,12.036-17.4,25.357-45.592s24.265-57.268,36.519-86.387l6.086.248c-7.592,31.224-31.312,60.618-41.841,90.834-10.55,30.209-20.492,52.537-33.983,81.422-13.554,28.836-33.475,79.932-41.125,91.619-8.686,13.271-17.7,26.272-27.35,38.794a447.777,447.777,0,0,1-30.95,35.712c-21.913,22.489-46.732,42.2-74.359,56.194-27.526,14.112-57.89,22.005-88.209,22.378a201.693,201.693,0,0,1-22.66-.986,212.933,212.933,0,0,1-22.308-3.549,198.743,198.743,0,0,1-43.279-14.493A222.152,222.152,0,0,1,761.212,434.1c-3.059-2.292-6.057-4.647-9.031-7.016q-4.431-3.591-8.749-7.265c-5.762-4.892-11.407-9.819-16.992-14.734-11.153-9.843-22.184-19.459-33.739-28.03-5.754-4.33-11.68-8.294-17.733-12a181.741,181.741,0,0,0-18.677-9.845,166.833,166.833,0,0,0-39.771-12.326c-6.794-1.154-13.78-2.106-20.71-2.741-6.941-.661-13.889-1.055-20.831-1.107A205.922,205.922,0,0,0,493.791,354.2a242.461,242.461,0,0,0-37.226,19.088,322.082,322.082,0,0,0-34.255,24.906c-2.769,2.211-5.456,4.572-8.157,6.893-1.361,1.142-2.662,2.391-4,3.578-1.325,1.2-2.684,2.348-3.992,3.578-2.613,2.467-5.276,4.849-7.826,7.407-1.28,1.27-2.586,2.5-3.884,3.744l-3.825,3.837c-10.137,10.307-20.017,21.009-29.5,32.257-18.881,22.572-83.6,117.678-83.6,117.678S229.123,665.934,214.979,694Z"></path><path id="Path_2" data-name="Path 2" d="M951.256,696.557H973.3L1239.019,54.5h-17.75l-239.2,577.887L744.685,54.5H689.353"></path><path id="Path_3" data-name="Path 3" d="M496.015,54.607l0,0H473.97L203.56,696.459l18.459.041L465.2,118.777l242.191,577.9,54-.012"></path></g><g id="Whilte_SVG_AV_writing_logo" data-name="Whilte SVG AV writing logo" transform="translate(39.202 536.772)"><g id="Group_3-2" data-name="Group 3" transform="translate(0.798 163.228)"><path id="Path_1-2" data-name="Path 1" d="M85.69,86.883H30.832L8.661,136.726H.789L61.075,1.228h4.213l58.046,135.5H107.045Zm-3.083-7.191L58.776,24.07,34.031,79.7Z" transform="translate(-0.789 -1.228)"></path><path id="Path_2-2" data-name="Path 2" d="M194.63,140.415h-4.275L86.46,25.345V136.726H79.269V1.228h4.277l103.9,115.066V3.806h7.188Z" transform="translate(78.907 -1.228)"></path><path id="Path_3-2" data-name="Path 3" d="M160.371,2.507h15.142V135.428H160.371Z" transform="translate(161.267 0.071)"></path><path id="Path_4" data-name="Path 4" d="M286.8,9.7H245.853V135.428H230.707V9.7H189.748V2.507H286.8Z" transform="translate(191.099 0.071)"></path><path id="Path_5" data-name="Path 5" d="M324.057,86.883H269.2l-22.171,49.844h-7.861l60.271-135.5h4.214l58.046,135.5h-16.3Zm-3.083-7.191L297.148,24.064,272.4,79.691Z" transform="translate(241.289 -1.228)"></path></g><g id="Group_4" data-name="Group 4" transform="translate(703.305 167.741)"><path id="Path_6" data-name="Path 6" d="M471.887,3.469l-60.281,135.5h-4.218L349.341,3.478h16.3l48.269,112.654L464.019,3.469Z" transform="translate(-349.341 -3.465)"></path><path id="Path_7" data-name="Path 7" d="M430.858,3.467H446V136.388h-15.14Z" transform="translate(-266.56 -3.467)"></path><path id="Path_8" data-name="Path 8" d="M556.45,10.661H515.491V136.388H500.345V10.661H459.4V3.467h97.06Z" transform="translate(-237.576 -3.467)"></path><path id="Path_9" data-name="Path 9" d="M542.722,10.661V63.347h46.6v7.2h-46.6V129.3h52.262v7.087h-67.39V3.467h67.4v7.194Z" transform="translate(-168.325 -3.467)"></path><path id="Path_10" data-name="Path 10" d="M581.837,3.467h15.142V136.388H581.837Zm97.24,132.921h-19.9L600.609,67.659,663.148,3.467h10.03l-57.272,58.8Z" transform="translate(-113.241 -3.467)"></path></g></g></g></svg>