<svg id="Group_80" data-name="Group 80" xmlns="http://www.w3.org/2000/svg" width="104" height="46" viewBox="0 0 104 46">
  <g id="Group_66" data-name="Group 66" transform="translate(-416.023 -354.023)">
    <g id="Reversible" transform="translate(421.023 359.257)">
      <path id="Path_6" data-name="Path 6" d="M227.251,55.022,214.2,77.623a.324.324,0,0,0,.281.487h26.1a.324.324,0,0,0,.281-.487l-13.048-22.6a.324.324,0,0,0-.562,0Z" transform="translate(-211.165 -54.238)" fill="none" stroke="#000" stroke-linecap="round" stroke-linejoin="round" stroke-width="1"/>
      <path id="Path_7" data-name="Path 7" d="M184.152,45.371,168.091,61.43a.324.324,0,0,0,0,.459l16.061,16.059a.324.324,0,0,0,.459,0l16.057-16.059a.324.324,0,0,0,0-.459L184.606,45.371a.324.324,0,0,0-.459,0Z" transform="translate(-167.996 -45.276)" fill="none" stroke="#000" stroke-linecap="round" stroke-linejoin="round" stroke-width="1"/>
    </g>
  </g>
  <path id="Path_36" data-name="Path 36" d="M1.688-3.055h.648A1.481,1.481,0,0,0,3.281-3.3a.879.879,0,0,0,.293-.719.774.774,0,0,0-.316-.7A1.735,1.735,0,0,0,2.3-4.922H1.688Zm0,.773V0H.754V-5.711H2.367A2.651,2.651,0,0,1,4-5.3a1.487,1.487,0,0,1,.531,1.25,1.562,1.562,0,0,1-1.109,1.52L5.039,0H3.977L2.609-2.281ZM9.1,0H5.867V-5.711H9.1v.789H6.8v1.555H8.953v.781H6.8V-.793H9.1Zm4.488-5.711h.969L12.555,0H11.57L9.578-5.711h.961L11.73-2.16q.094.254.2.654t.137.6q.051-.3.156-.687t.172-.578ZM18.539,0h-3.23V-5.711h3.23v.789h-2.3v1.555h2.152v.781H16.242V-.793h2.3Zm2.168-3.055h.648A1.481,1.481,0,0,0,22.3-3.3a.879.879,0,0,0,.293-.719.774.774,0,0,0-.316-.7,1.735,1.735,0,0,0-.953-.211h-.617Zm0,.773V0h-.934V-5.711h1.613a2.651,2.651,0,0,1,1.637.414,1.487,1.487,0,0,1,.531,1.25,1.562,1.562,0,0,1-1.109,1.52L24.059,0H23L21.629-2.281Zm7.473.73a1.437,1.437,0,0,1-.551,1.2,2.4,2.4,0,0,1-1.52.434,3.626,3.626,0,0,1-1.586-.3v-.883a4.311,4.311,0,0,0,.83.289,3.52,3.52,0,0,0,.818.105,1.3,1.3,0,0,0,.818-.211.688.688,0,0,0,.264-.566.71.71,0,0,0-.242-.543,3.646,3.646,0,0,0-1-.527,2.645,2.645,0,0,1-1.1-.723,1.529,1.529,0,0,1-.32-.977A1.368,1.368,0,0,1,25.1-5.383a2.106,2.106,0,0,1,1.363-.41,4.006,4.006,0,0,1,1.633.359l-.3.762a3.567,3.567,0,0,0-1.359-.32,1.043,1.043,0,0,0-.687.2.648.648,0,0,0-.234.521.734.734,0,0,0,.094.381.958.958,0,0,0,.309.3,5.22,5.22,0,0,0,.773.371,4.232,4.232,0,0,1,.922.488,1.436,1.436,0,0,1,.43.512A1.539,1.539,0,0,1,28.18-1.551ZM29.285,0V-5.711h.934V0Zm2.441-5.711h1.7a3.218,3.218,0,0,1,1.705.344,1.2,1.2,0,0,1,.525,1.086,1.316,1.316,0,0,1-.258.832,1.153,1.153,0,0,1-.742.418v.039a1.474,1.474,0,0,1,.885.447,1.353,1.353,0,0,1,.283.9,1.466,1.466,0,0,1-.537,1.205A2.31,2.31,0,0,1,33.789,0H31.727Zm.934,2.359h.9a1.538,1.538,0,0,0,.855-.186.711.711,0,0,0,.27-.631.632.632,0,0,0-.291-.582,1.818,1.818,0,0,0-.924-.18H32.66Zm0,.758V-.785h.992a1.46,1.46,0,0,0,.885-.225.829.829,0,0,0,.3-.709.753.753,0,0,0-.3-.66,1.615,1.615,0,0,0-.926-.215ZM37.008,0V-5.711h.934V-.8h2.418V0Zm7.566,0h-3.23V-5.711h3.23v.789h-2.3v1.555H44.43v.781H42.277V-.793h2.3Z" transform="translate(41 25)"/>
  <rect id="Rectangle_76" data-name="Rectangle 76" width="104" height="46" fill="#fff" opacity="0"/>
</svg>
