<svg id="Group_83" data-name="Group 83" xmlns="http://www.w3.org/2000/svg" width="147" height="46" viewBox="0 0 147 46">
  <path id="Path_33" data-name="Path 33" d="M4.535-3.984a1.665,1.665,0,0,1-.586,1.371,2.581,2.581,0,0,1-1.668.477H1.688V0H.754V-5.711H2.4A2.488,2.488,0,0,1,4-5.273,1.571,1.571,0,0,1,4.535-3.984ZM1.688-2.922h.5a1.778,1.778,0,0,0,1.055-.25.91.91,0,0,0,.336-.781.887.887,0,0,0-.3-.734,1.486,1.486,0,0,0-.937-.242H1.688ZM8.906,0H5.676V-5.711h3.23v.789h-2.3v1.555H8.762v.781H6.609V-.793h2.3Zm2.168-3.055h.648a1.481,1.481,0,0,0,.945-.242.879.879,0,0,0,.293-.719.774.774,0,0,0-.316-.7,1.735,1.735,0,0,0-.953-.211h-.617Zm0,.773V0h-.934V-5.711h1.613a2.651,2.651,0,0,1,1.637.414,1.487,1.487,0,0,1,.531,1.25,1.562,1.562,0,0,1-1.109,1.52L14.426,0H13.363L12-2.281ZM17.723,0,16.066-4.77h-.031q.066,1.063.066,1.992V0h-.848V-5.711H16.57l1.586,4.543h.023l1.633-4.543h1.32V0h-.9V-2.824q0-.426.021-1.109t.037-.828h-.031L18.547,0ZM26.18,0l-.57-1.586H23.426L22.867,0h-.984L24.02-5.734h1.016L27.172,0Zm-.816-2.391-.535-1.555q-.059-.156-.162-.492t-.143-.492a8.755,8.755,0,0,1-.309,1.051L23.7-2.391ZM32.684,0H31.539L28.73-4.551H28.7l.02.254q.055.727.055,1.328V0h-.848V-5.711h1.133l2.8,4.527h.023q-.008-.09-.031-.654t-.023-.881V-5.711h.855Zm4.738,0h-3.23V-5.711h3.23v.789h-2.3v1.555h2.152v.781H35.125V-.793h2.3Zm5.992,0H42.27L39.461-4.551H39.43l.02.254q.055.727.055,1.328V0h-.848V-5.711h1.133l2.8,4.527h.023q-.008-.09-.031-.654t-.023-.881V-5.711h.855Zm3.48,0h-.934V-4.91h-1.68v-.8h4.293v.8h-1.68Zm7.063-4.992a1.539,1.539,0,0,0-1.266.57,2.438,2.438,0,0,0-.461,1.574,2.454,2.454,0,0,0,.443,1.59,1.566,1.566,0,0,0,1.283.539,3.372,3.372,0,0,0,.7-.072q.34-.072.707-.186v.8a4.287,4.287,0,0,1-1.523.254,2.435,2.435,0,0,1-1.926-.76,3.178,3.178,0,0,1-.672-2.174,3.513,3.513,0,0,1,.326-1.559,2.328,2.328,0,0,1,.943-1.023,2.853,2.853,0,0,1,1.449-.355,3.6,3.6,0,0,1,1.617.367l-.336.777a5.016,5.016,0,0,0-.611-.24A2.2,2.2,0,0,0,53.957-4.992Zm7.711,2.129a3.124,3.124,0,0,1-.7,2.168A2.522,2.522,0,0,1,59,.078,2.539,2.539,0,0,1,57.01-.689a3.143,3.143,0,0,1-.693-2.182,3.1,3.1,0,0,1,.7-2.172A2.569,2.569,0,0,1,59-5.8a2.517,2.517,0,0,1,1.969.77A3.121,3.121,0,0,1,61.668-2.863Zm-4.359,0a2.561,2.561,0,0,0,.426,1.6A1.5,1.5,0,0,0,59-.719a1.5,1.5,0,0,0,1.256-.539,2.565,2.565,0,0,0,.424-1.605,2.571,2.571,0,0,0-.42-1.594A1.485,1.485,0,0,0,59-5a1.516,1.516,0,0,0-1.268.543A2.536,2.536,0,0,0,57.309-2.863ZM62.895,0V-5.711h.934V-.8h2.418V0ZM67.23,0V-5.711h.934V-.8h2.418V0ZM74.8,0h-3.23V-5.711H74.8v.789H72.5v1.555h2.152v.781H72.5V-.793h2.3Zm3.664-4.992a1.539,1.539,0,0,0-1.266.57,2.438,2.438,0,0,0-.461,1.574,2.454,2.454,0,0,0,.443,1.59,1.566,1.566,0,0,0,1.283.539,3.372,3.372,0,0,0,.7-.072q.34-.072.707-.186v.8a4.287,4.287,0,0,1-1.523.254,2.435,2.435,0,0,1-1.926-.76,3.178,3.178,0,0,1-.672-2.174,3.513,3.513,0,0,1,.326-1.559,2.328,2.328,0,0,1,.943-1.023,2.853,2.853,0,0,1,1.449-.355,3.6,3.6,0,0,1,1.617.367l-.336.777a5.016,5.016,0,0,0-.611-.24A2.2,2.2,0,0,0,78.461-4.992ZM83.074,0h-.934V-4.91h-1.68v-.8h4.293v.8h-1.68Zm2.555,0V-5.711h.934V0Zm7.512-2.863a3.124,3.124,0,0,1-.7,2.168,2.522,2.522,0,0,1-1.975.773,2.539,2.539,0,0,1-1.986-.768,3.143,3.143,0,0,1-.693-2.182,3.1,3.1,0,0,1,.7-2.172,2.569,2.569,0,0,1,1.99-.758,2.517,2.517,0,0,1,1.969.77A3.121,3.121,0,0,1,93.141-2.863Zm-4.359,0a2.561,2.561,0,0,0,.426,1.6,1.5,1.5,0,0,0,1.262.545,1.5,1.5,0,0,0,1.256-.539,2.565,2.565,0,0,0,.424-1.605,2.571,2.571,0,0,0-.42-1.594A1.485,1.485,0,0,0,90.477-5a1.516,1.516,0,0,0-1.268.543A2.536,2.536,0,0,0,88.781-2.863ZM99.125,0H97.98L95.172-4.551h-.031l.02.254q.055.727.055,1.328V0h-.848V-5.711H95.5l2.8,4.527h.023q-.008-.09-.031-.654t-.023-.881V-5.711h.855Z" transform="translate(42 25)"/>
  <path id="Continous" d="M181.545,45.535a6.018,6.018,0,0,1,5.577,0,6.019,6.019,0,0,0,5.577,0m-11.155,33.63a6.018,6.018,0,0,1,5.577,0,6.02,6.02,0,0,0,5.577,0M172.064,53.459a2.807,2.807,0,0,1,3.675,0,2.807,2.807,0,0,0,3.674,0,2.807,2.807,0,0,1,3.674,0,2.807,2.807,0,0,0,3.674,0,2.807,2.807,0,0,1,3.674,0,2.808,2.808,0,0,0,3.675,0,2.807,2.807,0,0,1,3.674,0,2.807,2.807,0,0,0,3.674,0m-29.4,17.784a2.809,2.809,0,0,1,3.675,0,2.807,2.807,0,0,0,3.674,0,2.807,2.807,0,0,1,3.674,0,2.807,2.807,0,0,0,3.674,0,2.807,2.807,0,0,1,3.674,0,2.808,2.808,0,0,0,3.675,0,2.807,2.807,0,0,1,3.674,0,2.807,2.807,0,0,0,3.674,0M169.58,62.351a3.774,3.774,0,0,1,4.337,0,3.774,3.774,0,0,0,4.337,0,3.774,3.774,0,0,1,4.337,0,3.773,3.773,0,0,0,4.336,0,3.774,3.774,0,0,1,4.337,0,3.774,3.774,0,0,0,4.337,0,3.774,3.774,0,0,1,4.337,0,3.774,3.774,0,0,0,4.337,0" transform="translate(-164.58 -40.85)" fill="none" stroke="#000" stroke-linecap="round" stroke-linejoin="round" stroke-width="1"/>
  <rect id="Rectangle_76" data-name="Rectangle 76" width="147" height="46" fill="#fff" opacity="0"/>
</svg>
