<svg id="Group_81" data-name="Group 81" xmlns="http://www.w3.org/2000/svg" width="137" height="46" viewBox="0 0 137 46">
  <path id="Path_35" data-name="Path 35" d="M4.047-1.551A1.437,1.437,0,0,1,3.5-.355a2.4,2.4,0,0,1-1.52.434,3.626,3.626,0,0,1-1.586-.3v-.883a4.311,4.311,0,0,0,.83.289,3.52,3.52,0,0,0,.818.105,1.3,1.3,0,0,0,.818-.211.688.688,0,0,0,.264-.566.71.71,0,0,0-.242-.543,3.646,3.646,0,0,0-1-.527,2.645,2.645,0,0,1-1.1-.723,1.529,1.529,0,0,1-.32-.977A1.368,1.368,0,0,1,.965-5.383a2.106,2.106,0,0,1,1.363-.41,4.006,4.006,0,0,1,1.633.359l-.3.762A3.567,3.567,0,0,0,2.3-4.992a1.043,1.043,0,0,0-.687.2.648.648,0,0,0-.234.521.734.734,0,0,0,.094.381.958.958,0,0,0,.309.3,5.22,5.22,0,0,0,.773.371,4.232,4.232,0,0,1,.922.488,1.436,1.436,0,0,1,.43.512A1.539,1.539,0,0,1,4.047-1.551Zm6.176-1.312A3.124,3.124,0,0,1,9.525-.7,2.522,2.522,0,0,1,7.551.078,2.539,2.539,0,0,1,5.564-.689a3.143,3.143,0,0,1-.693-2.182,3.1,3.1,0,0,1,.7-2.172A2.569,2.569,0,0,1,7.559-5.8a2.517,2.517,0,0,1,1.969.77A3.121,3.121,0,0,1,10.223-2.863Zm-4.359,0a2.561,2.561,0,0,0,.426,1.6,1.5,1.5,0,0,0,1.262.545,1.5,1.5,0,0,0,1.256-.539A2.565,2.565,0,0,0,9.23-2.863a2.571,2.571,0,0,0-.42-1.594A1.485,1.485,0,0,0,7.559-5a1.516,1.516,0,0,0-1.268.543A2.536,2.536,0,0,0,5.863-2.863Zm8.016-2.129a1.539,1.539,0,0,0-1.266.57,2.438,2.438,0,0,0-.461,1.574,2.454,2.454,0,0,0,.443,1.59,1.566,1.566,0,0,0,1.283.539,3.372,3.372,0,0,0,.7-.072q.34-.072.707-.186v.8a4.287,4.287,0,0,1-1.523.254,2.435,2.435,0,0,1-1.926-.76,3.178,3.178,0,0,1-.672-2.174,3.513,3.513,0,0,1,.326-1.559,2.328,2.328,0,0,1,.943-1.023,2.853,2.853,0,0,1,1.449-.355,3.6,3.6,0,0,1,1.617.367l-.336.777a5.016,5.016,0,0,0-.611-.24A2.2,2.2,0,0,0,13.879-4.992ZM16.52,0V-5.711h.934V0ZM22.5,0l-.57-1.586H19.75L19.191,0h-.984l2.137-5.734h1.016L23.5,0Zm-.816-2.391-.535-1.555q-.059-.156-.162-.492t-.143-.492a8.755,8.755,0,0,1-.309,1.051l-.516,1.488ZM24.25,0V-5.711h.934V-.8H27.6V0Zm3.863-1.754v-.781h2.008v.781Zm3.98-1.3h.648a1.481,1.481,0,0,0,.945-.242.879.879,0,0,0,.293-.719.774.774,0,0,0-.316-.7,1.735,1.735,0,0,0-.953-.211h-.617Zm0,.773V0H31.16V-5.711h1.613A2.651,2.651,0,0,1,34.41-5.3a1.487,1.487,0,0,1,.531,1.25,1.563,1.563,0,0,1-1.109,1.52L35.445,0H34.383L33.016-2.281ZM39.5,0h-3.23V-5.711H39.5v.789h-2.3v1.555h2.152v.781H37.207V-.793h2.3Zm4.527-1.551a1.437,1.437,0,0,1-.551,1.2,2.4,2.4,0,0,1-1.52.434,3.626,3.626,0,0,1-1.586-.3v-.883a4.311,4.311,0,0,0,.83.289,3.52,3.52,0,0,0,.818.105,1.3,1.3,0,0,0,.818-.211.688.688,0,0,0,.264-.566.71.71,0,0,0-.242-.543,3.646,3.646,0,0,0-1-.527,2.645,2.645,0,0,1-1.1-.723,1.529,1.529,0,0,1-.32-.977,1.368,1.368,0,0,1,.508-1.125,2.106,2.106,0,0,1,1.363-.41,4.006,4.006,0,0,1,1.633.359l-.3.762a3.567,3.567,0,0,0-1.359-.32,1.043,1.043,0,0,0-.687.2.648.648,0,0,0-.234.521.734.734,0,0,0,.094.381.958.958,0,0,0,.309.3,5.22,5.22,0,0,0,.773.371,4.232,4.232,0,0,1,.922.488,1.436,1.436,0,0,1,.43.512A1.539,1.539,0,0,1,44.031-1.551Zm4.887-2.434a1.665,1.665,0,0,1-.586,1.371,2.581,2.581,0,0,1-1.668.477H46.07V0h-.934V-5.711h1.645a2.488,2.488,0,0,1,1.6.438A1.571,1.571,0,0,1,48.918-3.984ZM46.07-2.922h.5a1.778,1.778,0,0,0,1.055-.25.91.91,0,0,0,.336-.781.887.887,0,0,0-.3-.734,1.486,1.486,0,0,0-.937-.242H46.07Zm9.059.059a3.124,3.124,0,0,1-.7,2.168,2.522,2.522,0,0,1-1.975.773,2.539,2.539,0,0,1-1.986-.768,3.143,3.143,0,0,1-.693-2.182,3.1,3.1,0,0,1,.7-2.172,2.569,2.569,0,0,1,1.99-.758,2.517,2.517,0,0,1,1.969.77A3.121,3.121,0,0,1,55.129-2.863Zm-4.359,0a2.561,2.561,0,0,0,.426,1.6,1.5,1.5,0,0,0,1.262.545,1.5,1.5,0,0,0,1.256-.539,2.565,2.565,0,0,0,.424-1.605,2.571,2.571,0,0,0-.42-1.594A1.485,1.485,0,0,0,52.465-5a1.516,1.516,0,0,0-1.268.543A2.536,2.536,0,0,0,50.77-2.863ZM61.113,0H59.969L57.16-4.551h-.031l.02.254q.055.727.055,1.328V0h-.848V-5.711h1.133l2.8,4.527h.023q-.008-.09-.031-.654t-.023-.881V-5.711h.855Zm4.8-1.551a1.437,1.437,0,0,1-.551,1.2,2.4,2.4,0,0,1-1.52.434,3.626,3.626,0,0,1-1.586-.3v-.883a4.311,4.311,0,0,0,.83.289,3.52,3.52,0,0,0,.818.105,1.3,1.3,0,0,0,.818-.211.688.688,0,0,0,.264-.566.71.71,0,0,0-.242-.543,3.646,3.646,0,0,0-1-.527,2.645,2.645,0,0,1-1.1-.723,1.529,1.529,0,0,1-.32-.977,1.368,1.368,0,0,1,.508-1.125,2.106,2.106,0,0,1,1.363-.41,4.006,4.006,0,0,1,1.633.359l-.3.762a3.567,3.567,0,0,0-1.359-.32,1.043,1.043,0,0,0-.687.2.648.648,0,0,0-.234.521.734.734,0,0,0,.094.381.958.958,0,0,0,.309.3,5.22,5.22,0,0,0,.773.371,4.232,4.232,0,0,1,.922.488,1.436,1.436,0,0,1,.43.512A1.539,1.539,0,0,1,65.914-1.551ZM67.02,0V-5.711h.934V0Zm2.441-5.711h1.7a3.218,3.218,0,0,1,1.705.344,1.2,1.2,0,0,1,.525,1.086,1.316,1.316,0,0,1-.258.832,1.153,1.153,0,0,1-.742.418v.039a1.474,1.474,0,0,1,.885.447,1.353,1.353,0,0,1,.283.9,1.466,1.466,0,0,1-.537,1.205A2.31,2.31,0,0,1,71.523,0H69.461Zm.934,2.359h.9a1.538,1.538,0,0,0,.855-.186.711.711,0,0,0,.27-.631.632.632,0,0,0-.291-.582,1.818,1.818,0,0,0-.924-.18h-.809Zm0,.758V-.785h.992a1.46,1.46,0,0,0,.885-.225.829.829,0,0,0,.3-.709.753.753,0,0,0-.3-.66,1.615,1.615,0,0,0-.926-.215ZM74.742,0V-5.711h.934V0Zm2.441,0V-5.711h.934V-.8h2.418V0Zm6.309,0h-.934V-4.91h-1.68v-.8h4.293v.8h-1.68ZM87.66-3.105l1.352-2.605h1.016l-1.9,3.5V0h-.937V-2.184L85.293-5.711h1.016Z" transform="translate(40 25)"/>
  <path id="Social-Responsibilty" d="M180.9,59.167V78.445m.162-19.49A5.858,5.858,0,1,0,175.2,53.1,5.858,5.858,0,0,0,181.06,58.955ZM165,56.559s6.39,10.127,16.06,10.245S196.8,56.542,196.8,56.542" transform="translate(-159 -41.445)" fill="none" stroke="#000" stroke-linecap="round" stroke-linejoin="round" stroke-width="1"/>
  <rect id="Rectangle_76" data-name="Rectangle 76" width="137" height="46" fill="#fff" opacity="0"/>
</svg>
