<svg xmlns="http://www.w3.org/2000/svg" width="76" height="76" viewBox="0 0 76 76">
  <g id="Group_72" data-name="Group 72" transform="translate(-406 -357)">
    <rect id="Rectangle_74" data-name="Rectangle 74" width="76" height="76" transform="translate(406 357)" fill="#fff" opacity="0"/>
    <path id="Path_27" data-name="Path 27" d="M-24.564,0V-5.711h.934V-.8h2.418V0Zm4.336,0V-5.711h.934V0Zm7.2,0h-1.145l-2.809-4.551h-.031l.02.254q.055.727.055,1.328V0h-.848V-5.711h1.133l2.8,4.527h.023q-.008-.09-.031-.654t-.023-.881V-5.711h.855Zm4.738,0h-3.23V-5.711h3.23v.789h-2.3v1.555h2.152v.781h-2.152V-.793h2.3Zm4.32-4.48a.891.891,0,0,0,.131.465,2.7,2.7,0,0,0,.365.465,2.241,2.241,0,0,0,.619-.467A.748.748,0,0,0-2.678-4.5a.519.519,0,0,0-.17-.406A.65.65,0,0,0-3.3-5.062a.72.72,0,0,0-.49.158A.534.534,0,0,0-3.971-4.48Zm.582,3.77a1.862,1.862,0,0,0,1.223-.418L-3.662-2.6a1.961,1.961,0,0,0-.57.5.927.927,0,0,0-.156.529.793.793,0,0,0,.271.623A1.059,1.059,0,0,0-3.389-.711Zm-1.969-.8a1.589,1.589,0,0,1,.25-.893,2.625,2.625,0,0,1,.9-.756,3.313,3.313,0,0,1-.506-.732,1.49,1.49,0,0,1-.135-.619,1.142,1.142,0,0,1,.424-.937,1.754,1.754,0,0,1,1.139-.344A1.629,1.629,0,0,1-2.2-5.459a1.119,1.119,0,0,1,.395.9,1.344,1.344,0,0,1-.264.809,2.886,2.886,0,0,1-.881.727l1.352,1.3a3.531,3.531,0,0,0,.527-1.227h.945A4.3,4.3,0,0,1-1-1.137L.178,0H-1.006l-.582-.566a2.937,2.937,0,0,1-.85.482,2.934,2.934,0,0,1-1,.162,2.14,2.14,0,0,1-1.41-.426A1.434,1.434,0,0,1-5.357-1.512ZM3.947,0H3.021V-5.711H6.244v.789h-2.3v1.785H6.1v.793H3.947Zm8.4-2.863a3.124,3.124,0,0,1-.7,2.168A2.522,2.522,0,0,1,9.678.078,2.539,2.539,0,0,1,7.691-.689,3.143,3.143,0,0,1,7-2.871a3.1,3.1,0,0,1,.7-2.172A2.569,2.569,0,0,1,9.686-5.8a2.517,2.517,0,0,1,1.969.77A3.121,3.121,0,0,1,12.35-2.863Zm-4.359,0a2.561,2.561,0,0,0,.426,1.6,1.5,1.5,0,0,0,1.262.545,1.5,1.5,0,0,0,1.256-.539,2.565,2.565,0,0,0,.424-1.605,2.571,2.571,0,0,0-.42-1.594A1.485,1.485,0,0,0,9.686-5a1.516,1.516,0,0,0-1.268.543A2.536,2.536,0,0,0,7.99-2.863Zm6.52-.191h.648A1.481,1.481,0,0,0,16.1-3.3a.879.879,0,0,0,.293-.719.774.774,0,0,0-.316-.7,1.735,1.735,0,0,0-.953-.211H14.51Zm0,.773V0h-.934V-5.711h1.613a2.651,2.651,0,0,1,1.637.414,1.487,1.487,0,0,1,.531,1.25,1.562,1.562,0,0,1-1.109,1.52L17.861,0H16.8L15.432-2.281ZM21.158,0,19.5-4.77h-.031q.066,1.063.066,1.992V0h-.848V-5.711h1.316l1.586,4.543h.023l1.633-4.543h1.32V0h-.9V-2.824q0-.426.021-1.109t.037-.828H23.7L21.982,0Z" transform="translate(444 419)"/>
    <path id="Silhouette" d="M342,48.28V93.091m9.286-44.811s8.041,12.631.931,23.167,3.22,21.644,3.81,21.644" transform="translate(95.423 313.72)" fill="none" stroke="#000" stroke-linecap="round" stroke-linejoin="round" stroke-width="1.5"/>
  </g>
</svg>
