<svg id="Group_78" data-name="Group 78" xmlns="http://www.w3.org/2000/svg" width="104" height="46" viewBox="0 0 104 46">
  <g id="Group_66" data-name="Group 66" transform="translate(-418 -356)">
    <path id="Multi-Purpose" d="M288.2,65.376l-9.156,15.861a.335.335,0,0,0,.29.5h18.311a.335.335,0,0,0,.29-.5L288.78,65.376a.335.335,0,0,0-.58,0Zm0-.736-9.156-15.858a.335.335,0,0,1,.29-.5h18.311a.335.335,0,0,1,.29.5L288.78,64.642a.335.335,0,0,1-.58,0Z" transform="translate(145.869 312.432)" fill="none" stroke="#000" stroke-linecap="round" stroke-linejoin="round" stroke-width="1"/>
  </g>
  <path id="Path_38" data-name="Path 38" d="M-28.4,0l-1.656-4.77h-.031q.066,1.063.066,1.992V0h-.848V-5.711h1.316l1.586,4.543h.023l1.633-4.543h1.32V0h-.9V-2.824q0-.426.021-1.109t.037-.828h-.031L-27.58,0Zm9.391-5.711v3.7a2.192,2.192,0,0,1-.271,1.107,1.809,1.809,0,0,1-.785.73A2.729,2.729,0,0,1-21.3.078a2.3,2.3,0,0,1-1.652-.562,2.036,2.036,0,0,1-.59-1.547v-3.68h.938V-2.1a1.444,1.444,0,0,0,.328,1.043,1.353,1.353,0,0,0,1.008.336q1.32,0,1.32-1.387V-5.711ZM-17.553,0V-5.711h.934V-.8H-14.2V0Zm6.309,0h-.934V-4.91h-1.68v-.8h4.293v.8h-1.68Zm2.555,0V-5.711h.934V0Zm1.969-1.754v-.781h2.008v.781ZM.107-3.984A1.665,1.665,0,0,1-.479-2.613a2.581,2.581,0,0,1-1.668.477H-2.74V0h-.934V-5.711h1.645a2.488,2.488,0,0,1,1.6.438A1.571,1.571,0,0,1,.107-3.984ZM-2.74-2.922h.5a1.778,1.778,0,0,0,1.055-.25.91.91,0,0,0,.336-.781.887.887,0,0,0-.3-.734,1.486,1.486,0,0,0-.937-.242H-2.74ZM5.725-5.711v3.7A2.192,2.192,0,0,1,5.453-.908a1.809,1.809,0,0,1-.785.73A2.729,2.729,0,0,1,3.439.078,2.3,2.3,0,0,1,1.787-.484,2.036,2.036,0,0,1,1.2-2.031v-3.68h.938V-2.1a1.444,1.444,0,0,0,.328,1.043,1.353,1.353,0,0,0,1.008.336q1.32,0,1.32-1.387V-5.711ZM8.119-3.055h.648A1.481,1.481,0,0,0,9.713-3.3a.879.879,0,0,0,.293-.719.774.774,0,0,0-.316-.7,1.735,1.735,0,0,0-.953-.211H8.119Zm0,.773V0H7.186V-5.711H8.8a2.651,2.651,0,0,1,1.637.414,1.487,1.487,0,0,1,.531,1.25,1.562,1.562,0,0,1-1.109,1.52L11.471,0H10.408L9.041-2.281Zm7.961-1.7a1.665,1.665,0,0,1-.586,1.371,2.581,2.581,0,0,1-1.668.477h-.594V0H12.3V-5.711h1.645a2.488,2.488,0,0,1,1.6.438A1.571,1.571,0,0,1,16.08-3.984ZM13.232-2.922h.5a1.778,1.778,0,0,0,1.055-.25.91.91,0,0,0,.336-.781.887.887,0,0,0-.3-.734,1.486,1.486,0,0,0-.937-.242h-.648Zm9.059.059a3.124,3.124,0,0,1-.7,2.168,2.522,2.522,0,0,1-1.975.773,2.539,2.539,0,0,1-1.986-.768,3.143,3.143,0,0,1-.693-2.182,3.1,3.1,0,0,1,.7-2.172,2.569,2.569,0,0,1,1.99-.758,2.517,2.517,0,0,1,1.969.77A3.121,3.121,0,0,1,22.291-2.863Zm-4.359,0a2.561,2.561,0,0,0,.426,1.6,1.5,1.5,0,0,0,1.262.545,1.5,1.5,0,0,0,1.256-.539A2.565,2.565,0,0,0,21.3-2.863a2.571,2.571,0,0,0-.42-1.594A1.485,1.485,0,0,0,19.627-5a1.516,1.516,0,0,0-1.268.543A2.536,2.536,0,0,0,17.932-2.863Zm8.879,1.313a1.437,1.437,0,0,1-.551,1.2,2.4,2.4,0,0,1-1.52.434,3.626,3.626,0,0,1-1.586-.3v-.883a4.311,4.311,0,0,0,.83.289,3.52,3.52,0,0,0,.818.105,1.3,1.3,0,0,0,.818-.211.688.688,0,0,0,.264-.566.71.71,0,0,0-.242-.543,3.646,3.646,0,0,0-1-.527,2.645,2.645,0,0,1-1.1-.723,1.529,1.529,0,0,1-.32-.977,1.368,1.368,0,0,1,.508-1.125,2.106,2.106,0,0,1,1.363-.41,4.006,4.006,0,0,1,1.633.359l-.3.762a3.567,3.567,0,0,0-1.359-.32,1.043,1.043,0,0,0-.687.2.648.648,0,0,0-.234.521.734.734,0,0,0,.094.381.958.958,0,0,0,.309.3,5.22,5.22,0,0,0,.773.371,4.232,4.232,0,0,1,.922.488,1.436,1.436,0,0,1,.43.512A1.539,1.539,0,0,1,26.811-1.551ZM31.146,0h-3.23V-5.711h3.23v.789h-2.3v1.555H31v.781H28.85V-.793h2.3Z" transform="translate(62 27)"/>
  <rect id="Rectangle_76" data-name="Rectangle 76" width="104" height="46" fill="#fff" opacity="0"/>
</svg>
