<svg id="Group_84" data-name="Group 84" xmlns="http://www.w3.org/2000/svg" width="104" height="46" viewBox="0 0 104 46">
  <path id="Path_32" data-name="Path 32" d="M4.3,0l-.57-1.586H1.543L.984,0H0L2.137-5.734H3.152L5.289,0ZM3.48-2.391,2.945-3.945q-.059-.156-.162-.492T2.641-4.93a8.754,8.754,0,0,1-.309,1.051L1.816-2.391Zm7.207-.52A2.846,2.846,0,0,1,9.9-.748,3.154,3.154,0,0,1,7.641,0h-1.6V-5.711H7.809a2.921,2.921,0,0,1,2.121.734A2.744,2.744,0,0,1,10.688-2.91ZM9.7-2.879Q9.7-4.93,7.785-4.93H6.977V-.785h.664A1.837,1.837,0,0,0,9.7-2.879Zm6.855-.031a2.846,2.846,0,0,1-.785,2.162A3.154,3.154,0,0,1,13.512,0h-1.6V-5.711H13.68a2.921,2.921,0,0,1,2.121.734A2.744,2.744,0,0,1,16.559-2.91Zm-.984.031q0-2.051-1.918-2.051h-.809V-.785h.664A1.837,1.837,0,0,0,15.574-2.879Zm1.738,1.125v-.781H19.32v.781ZM25.43-2.863a3.124,3.124,0,0,1-.7,2.168,2.522,2.522,0,0,1-1.975.773,2.539,2.539,0,0,1-1.986-.768,3.143,3.143,0,0,1-.693-2.182,3.1,3.1,0,0,1,.7-2.172,2.569,2.569,0,0,1,1.99-.758,2.517,2.517,0,0,1,1.969.77A3.121,3.121,0,0,1,25.43-2.863Zm-4.359,0a2.561,2.561,0,0,0,.426,1.6,1.5,1.5,0,0,0,1.262.545,1.5,1.5,0,0,0,1.256-.539,2.565,2.565,0,0,0,.424-1.605,2.571,2.571,0,0,0-.42-1.594A1.485,1.485,0,0,0,22.766-5a1.516,1.516,0,0,0-1.268.543A2.536,2.536,0,0,0,21.07-2.863ZM31.414,0H30.27L27.461-4.551H27.43l.02.254q.055.727.055,1.328V0h-.848V-5.711h1.133l2.8,4.527h.023q-.008-.09-.031-.654t-.023-.881V-5.711h.855Z" transform="translate(44 27)"/>
  <path id="Add-Ons" d="M181.7,60.441,170.044,80.629a.329.329,0,0,0,.285.493h23.311a.329.329,0,0,0,.285-.493L182.269,60.441a.329.329,0,0,0-.569,0Zm9.546-12L202.9,68.632a.329.329,0,0,1-.285.493H179.309a.329.329,0,0,1-.285-.493l11.655-20.187a.329.329,0,0,1,.569,0Z" transform="translate(-163.583 -43.28)" fill="none" stroke="#000" stroke-linecap="round" stroke-linejoin="round" stroke-width="1"/>
  <rect id="Rectangle_76" data-name="Rectangle 76" width="104" height="46" fill="#fff" opacity="0"/>
</svg>
