<svg xmlns="http://www.w3.org/2000/svg" xmlns:xlink="http://www.w3.org/1999/xlink" width="1859" height="775" viewBox="0 0 1859 775"><defs><clipPath id="clip-Hero_Background_2_"><rect width="1859" height="775"></rect></clipPath></defs><g id="Hero_Background_2_" data-name="Hero Background 2 " clip-path="url(#clip-Hero_Background_2_)"><rect width="1859" height="775" fill="#130b37"></rect><g id="Group_168" data-name="Group 168" transform="translate(-23 -141.918)"><path id="Path_210" data-name="Path 210" d="M1.041,0S121.368,43.528,156.578,89.638s-22.477,43.794-14.7,94.8,55.331,77.74,45.819,109.228c-3.792,12.555-31.987-12.623-82.128,58.736S-12.866,579.1-12.866,579.1" transform="translate(-33.5 155.5)" fill="none" stroke="#f5f2f9" stroke-width="1.5"></path><path id="Path_211" data-name="Path 211" d="M1.041,0S121.368,43.528,156.578,89.638s-22.477,43.794-14.7,94.8,55.331,77.74,45.819,109.228c-3.792,12.555-31.987-12.623-82.128,58.736S-12.866,579.1-12.866,579.1" transform="translate(-19.448 161.986)" fill="none" stroke="#f5f2f9" stroke-width="1.5"></path><path id="Path_212" data-name="Path 212" d="M1.041,0S121.368,43.528,156.578,89.638s-22.477,43.794-14.7,94.8,55.331,77.74,45.819,109.228c-3.792,12.555-31.987-12.623-82.128,58.736S-12.866,579.1-12.866,579.1" transform="translate(-4.315 166.309)" fill="none" stroke="#f5f2f9" stroke-width="1.5"></path><path id="Path_213" data-name="Path 213" d="M1.041,0S121.368,43.528,156.578,89.638s-22.477,43.794-14.7,94.8,55.331,77.74,45.819,109.228c-3.792,12.555-31.987-12.623-82.128,58.736S-12.866,579.1-12.866,579.1" transform="translate(9.737 172.795)" fill="none" stroke="#f5f2f9" stroke-width="1.5"></path><path id="Path_214" data-name="Path 214" d="M1.041,0S121.368,43.528,156.578,89.638s-22.477,43.794-14.7,94.8,55.331,77.74,45.819,109.228c-3.792,12.555-31.987-12.623-82.128,58.736S-12.866,579.1-12.866,579.1" transform="translate(22.88 178.235)" fill="none" stroke="#f5f2f9" stroke-width="1.5"></path></g><g id="Group_169" data-name="Group 169" transform="translate(1663.901 173.162)"><path id="Path_210-2" data-name="Path 210" d="M175.044,579.1S54.718,535.574,19.508,489.464s22.477-43.794,14.7-94.8-55.331-77.74-45.819-109.228c3.792-12.555,31.987,12.623,82.128-58.736S188.952,0,188.952,0" transform="translate(69.247 22.735)" fill="none" stroke="#f5f2f9" stroke-width="1.5"></path><path id="Path_211-2" data-name="Path 211" d="M175.044,579.1S54.718,535.574,19.508,489.464s22.477-43.794,14.7-94.8-55.331-77.74-45.819-109.228c3.792-12.555,31.987,12.623,82.128-58.736S188.952,0,188.952,0" transform="translate(55.195 16.25)" fill="none" stroke="#f5f2f9" stroke-width="1.5"></path><path id="Path_212-2" data-name="Path 212" d="M175.044,579.1S54.718,535.574,19.508,489.464s22.477-43.794,14.7-94.8-55.331-77.74-45.819-109.228c3.792-12.555,31.987,12.623,82.128-58.736S188.952,0,188.952,0" transform="translate(40.062 11.926)" fill="none" stroke="#f5f2f9" stroke-width="1.5"></path><path id="Path_213-2" data-name="Path 213" d="M175.044,579.1S54.718,535.574,19.508,489.464s22.477-43.794,14.7-94.8-55.331-77.74-45.819-109.228c3.792-12.555,31.987,12.623,82.128-58.736S188.952,0,188.952,0" transform="translate(26.009 5.44)" fill="none" stroke="#f5f2f9" stroke-width="1.5"></path><path id="Path_214-2" data-name="Path 214" d="M175.044,579.1S54.718,535.574,19.508,489.464s22.477-43.794,14.7-94.8-55.331-77.74-45.819-109.228c3.792-12.555,31.987,12.623,82.128-58.736S188.952,0,188.952,0" transform="translate(12.866 0)" fill="none" stroke="#f5f2f9" stroke-width="1.5"></path></g></g></svg>