<svg xmlns="http://www.w3.org/2000/svg" xmlns:xlink="http://www.w3.org/1999/xlink" version="1.1" id="works" x="0px" y="0px" viewBox="0 0 1591.2 526.2" style="enable-background:new 0 0 1591.2 526.2;" xml:space="preserve">
<style type="text/css">
	.st0{fill:#FFFFFF;}
</style>
<g>
	<g>
		<path class="st0" d="M851.4,487.4h-2.8c-0.4,0-0.6,0-0.7-0.1c-0.1-0.1-0.2-0.2-0.4-0.4l-36.7-102.9c-5.8-16.7-10.4-26.9-13.7-30.6    s-9.1-5.5-17.3-5.5c-0.8,0-1.1-0.4-1.1-1.3c0-0.9,0.4-1.3,1.1-1.3c0.2,0,0.8,0,1.8,0c1,0,3.2,0.1,6.6,0.3c6,0,10.2,0,12.5,0.1    c2.3,0.1,3.9,0.1,4.7,0.1c0.6,0,1.5,0,2.8,0c1.3,0,3.8-0.1,7.3-0.3c5.5-0.2,9.3-0.3,11.7-0.3c2.3,0,4.2,0,5.5,0    c0.9,0,1.4,0.4,1.4,1.3c0,0.9-0.5,1.3-1.4,1.3c-6.8,0-10.9,0.6-12.4,1.8c-1.5,1.2-2.1,3.4-1.7,6.6c0.2,1.9,0.7,4.3,1.5,7.3    c0.8,3,2.1,7,3.8,11.8l32.7,91.7l35.8-87.7c0.6-1.9,0.9-3.5,1.1-4.9c0.2-1.4,0.2-3,0-4.6c-0.4-1.9-0.8-3.8-1.4-5.6s-1.2-3.6-2-5.1    c-2.1-4.3-4.4-7.3-6.9-8.9s-6.1-2.4-10.6-2.4c-0.9,0-1.5-0.4-1.5-1.3c-0.1-0.9,0.3-1.3,1.3-1.3c1.3,0,3,0,5.2,0.1    c2.2,0.1,5.5,0.1,10,0.1c2.8,0.2,4.8,0.3,5.8,0.3s1.8,0,2.4,0s1.4,0,2.5,0s3.2-0.1,6.2-0.3c4.3-0.2,7.5-0.3,9.6-0.3s3.7,0,4.8,0    s1.7,0.4,1.8,1.3c0.1,0.9-0.4,1.3-1.5,1.3c-8.3,0-12.7,1.5-13.4,4.6c-0.7,3.1,1.4,10.7,6.1,22.7l37,94.2l29.6-82.1    c4.9-13.7,6.2-23.7,4-30c-2.3-6.3-8.6-9.5-18.9-9.5c-0.9,0-1.5-0.4-1.5-1.3c-0.1-0.9,0.3-1.3,1.3-1.3c1.3,0,3.2,0,5.8,0.1    c2.5,0.1,6.6,0.1,12.3,0.1c3.4,0.2,5.7,0.3,6.9,0.3c1.2,0,2.1,0,2.7,0c0.8,0,2.1,0,4,0s5.4-0.1,10.4-0.3c3.6-0.2,5.9-0.3,7-0.3    s1.9,0,2.3,0c0.9,0,1.4,0.4,1.4,1.3c0,0.9-0.4,1.3-1.1,1.3c-7.7,0-13.7,2.5-17.9,7.5c-4.2,5-9.5,16.3-15.9,34l-35.5,97.6    c-0.2,0.2-0.4,0.3-0.6,0.4c-0.2,0.1-0.6,0.1-1.1,0.1h-2.8c-0.4,0-0.6,0-0.7-0.1c-0.1-0.1-0.2-0.2-0.4-0.4l-43.4-110.3l-44.3,110.3    c-0.2,0-0.3,0.1-0.4,0.3C851.8,487.3,851.6,487.4,851.4,487.4z"/>
		<path class="st0" d="M1020.5,415.6c0-43.8,30.8-74,70.7-74c40,0,70.7,30.2,70.7,74c0,44.9-30.8,75.1-70.7,75.1    C1051.3,490.7,1020.5,460.5,1020.5,415.6z M1149.5,415.6c0-37.5-23.9-62.9-58.2-62.9s-58.2,25.3-58.2,62.9    c0,38.1,23.9,63.9,58.2,63.9C1125.6,479.5,1149.5,453.6,1149.5,415.6z"/>
		<path class="st0" d="M1195.2,394.9c6.3-35.9,24.8-51.1,56.3-51.1v11.4c-41.6,0.8-57.4,27.8-57.4,70.2v61h-12.2V345.9h12l0.3,49    H1195.2z"/>
		<path class="st0" d="M1294.5,486c-4.5,0-7.8,0-9.7-0.1c-2-0.1-3.4-0.1-4.4-0.1c-0.6,0-1.4,0-2.5,0s-3,0.1-5.6,0.3    c-4.1,0.2-7.3,0.3-9.4,0.3c-2.2,0-4.1,0-5.8,0c-1.1,0-1.7-0.4-1.7-1.3c0-0.9,0.6-1.3,1.7-1.3c5.6,0,9.2-1.5,10.6-4.5    c1.4-3,2.1-11.9,2.1-26.5v-161c0-4.5-0.2-8.1-0.6-10.9c-0.4-2.7-0.9-4.8-1.7-6.1c-1.1-1.9-2.7-3-4.7-3.4c-2-0.4-5.7-0.1-11.1,0.9    c-1.1,0.2-1.7-0.1-1.7-1c0-0.9,0.6-1.4,1.7-1.5c6.9-1.3,12.6-2.9,17.1-4.6s8.6-4.3,12.6-7.5c0.4-0.4,1.1-0.4,2.3,0    s1.7,0.9,1.7,1.4v178.8l53.3-54.7c6-6.2,10.4-11.4,13.3-15.5c2.8-4.1,4.4-7.7,4.8-10.7c0.2-3.2-1-5.5-3.5-6.8    c-2.5-1.3-6.7-2-12.6-2c-0.9,0-1.4-0.4-1.4-1.3c0-0.9,0.5-1.3,1.4-1.3c1.5,0,3.6,0,6.2,0.1c2.6,0.1,6.8,0.1,12.4,0.1    c3.4,0.2,5.7,0.3,6.9,0.3c1.2,0,2.1,0,2.7,0c0.8,0,2.5,0,5.2-0.1c2.7-0.1,7.6-0.1,14.5-0.1c4.3-0.2,7.1-0.3,8.5-0.3    c1.3,0,2.2,0,2.5,0c0.9,0,1.4,0.4,1.4,1.3c0,0.9-0.5,1.3-1.4,1.3c-8.8,0-17.4,2.6-25.7,7.8s-19.4,14.8-33.3,28.9l-8.5,8.5    l27.1,43.4c11.1,18,20,30.4,26.8,37.1c6.8,6.7,13.5,10,20.3,10c1.1,0,1.7,0.4,1.8,1.3c0.1,0.9-0.5,1.3-1.8,1.3H1387    c-3,0-5.5-0.2-7.3-0.7c-1.9-0.5-3.6-1.2-5.1-2.1c-3-1.9-6.4-5.4-10.3-10.6c-3.9-5.2-9.6-14.1-17.3-26.9l-25.4-41.7l-36.4,37v42.6    h17.2c1.1,0,1.7,0.4,1.7,1.3c0,0.9-0.6,1.3-1.7,1.3c-0.4,0-1,0-2,0C1299.4,486.3,1297.5,486.2,1294.5,486z"/>
		<path class="st0" d="M1411.8,443.9h12.5c0.5,22,18.8,36.2,48.7,36.2c25,0,42.7-12,42.7-29.9c0-14.7-9.2-22-26.1-25.3l-41.1-8.7    c-20.9-4.4-33.2-16.6-33.2-35.6c0-23.7,21.8-38.9,55.5-38.9c34.3,0,56.6,18,56.6,45.4h-12.5c0-21.2-17.4-34.8-44.1-34.8    c-26.1,0-43.3,11.2-43.3,28c0,13.1,8.4,22,23.9,25l40.5,8.7c23.4,4.9,36.2,15.2,36.2,35.9c0,24.8-22.6,40.8-55.2,40.8    C1435.2,490.7,1412.3,472.4,1411.8,443.9z"/>
	</g>
</g>
</svg>