<svg xmlns="http://www.w3.org/2000/svg" width="200" height="23" viewBox="0 0 200 23" fill="none"><path d="M0.26 0.76C0.68 0.78 1.23 0.799999 1.91 0.819999C2.59 0.839999 3.26 0.849999 3.92 0.849999C4.86 0.849999 5.76 0.839999 6.62 0.819999C7.48 0.799999 8.09 0.789999 8.45 0.789999C10.07 0.789999 11.41 1.02 12.47 1.48C13.55 1.94 14.35 2.57 14.87 3.37C15.41 4.15 15.68 5.03 15.68 6.01C15.68 6.61 15.56 7.25 15.32 7.93C15.08 8.61 14.66 9.25 14.06 9.85C13.48 10.45 12.68 10.95 11.66 11.35C10.64 11.73 9.35 11.92 7.79 11.92H4.91V11.32H7.49C8.91 11.32 9.99 11.1 10.73 10.66C11.49 10.2 12 9.6 12.26 8.86C12.54 8.1 12.68 7.26 12.68 6.34C12.68 4.76 12.3 3.54 11.54 2.68C10.8 1.8 9.52 1.36 7.7 1.36C6.78 1.36 6.18 1.53 5.9 1.87C5.62 2.21 5.48 2.9 5.48 3.94V18.82C5.48 19.54 5.54 20.08 5.66 20.44C5.78 20.8 6.01 21.04 6.35 21.16C6.71 21.28 7.23 21.36 7.91 21.4V22C7.45 21.96 6.87 21.94 6.17 21.94C5.49 21.92 4.8 21.91 4.1 21.91C3.32 21.91 2.59 21.92 1.91 21.94C1.23 21.94 0.68 21.96 0.26 22V21.4C0.94 21.36 1.45 21.28 1.79 21.16C2.15 21.04 2.39 20.8 2.51 20.44C2.63 20.08 2.69 19.54 2.69 18.82V3.94C2.69 3.2 2.63 2.66 2.51 2.32C2.39 1.96 2.15 1.72 1.79 1.6C1.45 1.46 0.94 1.38 0.26 1.36V0.76ZM5.03 11.41C6.11 11.45 6.96 11.5 7.58 11.56C8.2 11.6 8.7 11.64 9.08 11.68C9.48 11.72 9.86 11.77 10.22 11.83C11.56 12.05 12.52 12.46 13.1 13.06C13.7 13.64 14.14 14.55 14.42 15.79L15.17 18.85C15.37 19.73 15.57 20.37 15.77 20.77C15.99 21.15 16.32 21.33 16.76 21.31C17.1 21.29 17.38 21.18 17.6 20.98C17.84 20.78 18.09 20.51 18.35 20.17L18.8 20.5C18.38 21.12 17.94 21.6 17.48 21.94C17.04 22.26 16.41 22.42 15.59 22.42C14.85 22.42 14.2 22.2 13.64 21.76C13.08 21.32 12.66 20.46 12.38 19.18L11.72 16.18C11.54 15.32 11.33 14.58 11.09 13.96C10.87 13.32 10.55 12.82 10.13 12.46C9.73 12.1 9.13 11.92 8.33 11.92H5.09L5.03 11.41ZM37.6831 0.76C37.6031 1.46 37.5431 2.14 37.5031 2.8C37.4831 3.46 37.4731 3.96 37.4731 4.3C37.4731 4.66 37.4831 5.01 37.5031 5.35C37.5231 5.67 37.5431 5.94 37.5631 6.16H36.8731C36.7531 4.98 36.5831 4.05 36.3631 3.37C36.1431 2.67 35.7631 2.18 35.2231 1.9C34.7031 1.6 33.9131 1.45 32.8531 1.45H30.3631C29.6831 1.45 29.1631 1.51 28.8031 1.63C28.4631 1.73 28.2331 1.96 28.1131 2.32C27.9931 2.66 27.9331 3.2 27.9331 3.94V18.82C27.9331 19.54 27.9931 20.08 28.1131 20.44C28.2331 20.8 28.4631 21.04 28.8031 21.16C29.1631 21.26 29.6831 21.31 30.3631 21.31H32.5531C33.8131 21.31 34.7631 21.14 35.4031 20.8C36.0631 20.46 36.5331 19.91 36.8131 19.15C37.1131 18.37 37.3331 17.32 37.4731 16H38.1631C38.1031 16.54 38.0731 17.26 38.0731 18.16C38.0731 18.54 38.0831 19.09 38.1031 19.81C38.1431 20.51 38.2031 21.24 38.2831 22C37.2631 21.96 36.1131 21.94 34.8331 21.94C33.5531 21.92 32.4131 21.91 31.4131 21.91C30.9731 21.91 30.4031 21.91 29.7031 21.91C29.0231 21.91 28.2831 21.92 27.4831 21.94C26.6831 21.94 25.8731 21.95 25.0531 21.97C24.2331 21.97 23.4531 21.98 22.7131 22V21.4C23.3931 21.36 23.9031 21.28 24.2431 21.16C24.6031 21.04 24.8431 20.8 24.9631 20.44C25.0831 20.08 25.1431 19.54 25.1431 18.82V3.94C25.1431 3.2 25.0831 2.66 24.9631 2.32C24.8431 1.96 24.6031 1.72 24.2431 1.6C23.9031 1.46 23.3931 1.38 22.7131 1.36V0.76C23.4531 0.78 24.2331 0.799999 25.0531 0.819999C25.8731 0.819999 26.6831 0.829999 27.4831 0.849999C28.2831 0.849999 29.0231 0.849999 29.7031 0.849999C30.4031 0.849999 30.9731 0.849999 31.4131 0.849999C32.3331 0.849999 33.3731 0.849999 34.5331 0.849999C35.7131 0.829999 36.7631 0.799999 37.6831 0.76ZM32.5231 11.02C32.5231 11.02 32.5231 11.12 32.5231 11.32C32.5231 11.52 32.5231 11.62 32.5231 11.62H27.0331C27.0331 11.62 27.0331 11.52 27.0331 11.32C27.0331 11.12 27.0331 11.02 27.0331 11.02H32.5231ZM33.3931 7.06C33.3131 8.2 33.2731 9.07 33.2731 9.67C33.2931 10.27 33.3031 10.82 33.3031 11.32C33.3031 11.82 33.3131 12.37 33.3331 12.97C33.3531 13.57 33.4031 14.44 33.4831 15.58H32.7931C32.7131 14.94 32.6131 14.32 32.4931 13.72C32.3931 13.1 32.1531 12.6 31.7731 12.22C31.4131 11.82 30.7931 11.62 29.9131 11.62V11.02C30.5731 11.02 31.0731 10.89 31.4131 10.63C31.7731 10.35 32.0331 10 32.1931 9.58C32.3531 9.16 32.4631 8.73 32.5231 8.29C32.5831 7.83 32.6431 7.42 32.7031 7.06H33.3931ZM61.8444 0.76V1.36C61.4644 1.44 61.0544 1.67 60.6144 2.05C60.1944 2.43 59.8144 3.07 59.4744 3.97L52.4244 22.15C52.3844 22.15 52.3444 22.15 52.3044 22.15C52.2644 22.15 52.2244 22.15 52.1844 22.15C52.1444 22.15 52.1044 22.15 52.0644 22.15C52.0244 22.15 51.9844 22.15 51.9444 22.15L44.6244 3.28C44.3244 2.52 43.9844 2.02 43.6044 1.78C43.2244 1.52 42.8744 1.38 42.5544 1.36V0.76C42.9544 0.78 43.4444 0.799999 44.0244 0.819999C44.6244 0.839999 45.2044 0.849999 45.7644 0.849999C46.5444 0.849999 47.2744 0.839999 47.9544 0.819999C48.6344 0.799999 49.1844 0.78 49.6044 0.76V1.36C48.9244 1.38 48.4044 1.46 48.0444 1.6C47.7044 1.74 47.5144 1.99 47.4744 2.35C47.4544 2.69 47.5744 3.2 47.8344 3.88L53.4144 18.67L52.9344 19.18L58.1544 5.62C58.5744 4.54 58.7744 3.7 58.7544 3.1C58.7344 2.48 58.5044 2.04 58.0644 1.78C57.6244 1.52 56.9844 1.38 56.1444 1.36V0.76C56.7244 0.78 57.3144 0.799999 57.9144 0.819999C58.5144 0.839999 59.0744 0.849999 59.5944 0.849999C60.1144 0.849999 60.5444 0.839999 60.8844 0.819999C61.2244 0.799999 61.5444 0.78 61.8444 0.76Z" fill="white"></path><path d="M80.8609 0.76C80.7809 1.46 80.7209 2.14 80.6809 2.8C80.6609 3.46 80.6509 3.96 80.6509 4.3C80.6509 4.66 80.6609 5.01 80.6809 5.35C80.7009 5.67 80.7209 5.94 80.7409 6.16H80.0509C79.9309 4.98 79.7609 4.05 79.5409 3.37C79.3209 2.67 78.9409 2.18 78.4009 1.9C77.8809 1.6 77.0909 1.45 76.0309 1.45H73.5409C72.8609 1.45 72.3409 1.51 71.9809 1.63C71.6409 1.73 71.4109 1.96 71.2909 2.32C71.1709 2.66 71.1109 3.2 71.1109 3.94V18.82C71.1109 19.54 71.1709 20.08 71.2909 20.44C71.4109 20.8 71.6409 21.04 71.9809 21.16C72.3409 21.26 72.8609 21.31 73.5409 21.31H75.7309C76.9909 21.31 77.9409 21.14 78.5809 20.8C79.2409 20.46 79.7109 19.91 79.9909 19.15C80.2909 18.37 80.5109 17.32 80.6509 16H81.3409C81.2809 16.54 81.2509 17.26 81.2509 18.16C81.2509 18.54 81.2609 19.09 81.2809 19.81C81.3209 20.51 81.3809 21.24 81.4609 22C80.4409 21.96 79.2909 21.94 78.0109 21.94C76.7309 21.92 75.5909 21.91 74.5909 21.91C74.1509 21.91 73.5809 21.91 72.8809 21.91C72.2009 21.91 71.4609 21.92 70.6609 21.94C69.8609 21.94 69.0509 21.95 68.2309 21.97C67.4109 21.97 66.6309 21.98 65.8909 22V21.4C66.5709 21.36 67.0809 21.28 67.4209 21.16C67.7809 21.04 68.0209 20.8 68.1409 20.44C68.2609 20.08 68.3209 19.54 68.3209 18.82V3.94C68.3209 3.2 68.2609 2.66 68.1409 2.32C68.0209 1.96 67.7809 1.72 67.4209 1.6C67.0809 1.46 66.5709 1.38 65.8909 1.36V0.76C66.6309 0.78 67.4109 0.799999 68.2309 0.819999C69.0509 0.819999 69.8609 0.829999 70.6609 0.849999C71.4609 0.849999 72.2009 0.849999 72.8809 0.849999C73.5809 0.849999 74.1509 0.849999 74.5909 0.849999C75.5109 0.849999 76.5509 0.849999 77.7109 0.849999C78.8909 0.829999 79.9409 0.799999 80.8609 0.76ZM75.7009 11.02C75.7009 11.02 75.7009 11.12 75.7009 11.32C75.7009 11.52 75.7009 11.62 75.7009 11.62H70.2109C70.2109 11.62 70.2109 11.52 70.2109 11.32C70.2109 11.12 70.2109 11.02 70.2109 11.02H75.7009ZM76.5709 7.06C76.4909 8.2 76.4509 9.07 76.4509 9.67C76.4709 10.27 76.4809 10.82 76.4809 11.32C76.4809 11.82 76.4909 12.37 76.5109 12.97C76.5309 13.57 76.5809 14.44 76.6609 15.58H75.9709C75.8909 14.94 75.7909 14.32 75.6709 13.72C75.5709 13.1 75.3309 12.6 74.9509 12.22C74.5909 11.82 73.9709 11.62 73.0909 11.62V11.02C73.7509 11.02 74.2509 10.89 74.5909 10.63C74.9509 10.35 75.2109 10 75.3709 9.58C75.5309 9.16 75.6409 8.73 75.7009 8.29C75.7609 7.83 75.8209 7.42 75.8809 7.06H76.5709ZM87.1721 0.76C87.5921 0.78 88.1421 0.799999 88.8221 0.819999C89.5021 0.839999 90.1721 0.849999 90.8321 0.849999C91.7721 0.849999 92.6721 0.839999 93.5321 0.819999C94.3921 0.799999 95.0021 0.789999 95.3621 0.789999C96.9821 0.789999 98.3221 1.02 99.3821 1.48C100.462 1.94 101.262 2.57 101.782 3.37C102.322 4.15 102.592 5.03 102.592 6.01C102.592 6.61 102.472 7.25 102.232 7.93C101.992 8.61 101.572 9.25 100.972 9.85C100.392 10.45 99.5921 10.95 98.5721 11.35C97.5521 11.73 96.2621 11.92 94.7021 11.92H91.8221V11.32H94.4021C95.8221 11.32 96.9021 11.1 97.6421 10.66C98.4021 10.2 98.9121 9.6 99.1721 8.86C99.4521 8.1 99.5921 7.26 99.5921 6.34C99.5921 4.76 99.2121 3.54 98.4521 2.68C97.7121 1.8 96.4321 1.36 94.6121 1.36C93.6921 1.36 93.0921 1.53 92.8121 1.87C92.5321 2.21 92.3921 2.9 92.3921 3.94V18.82C92.3921 19.54 92.4521 20.08 92.5721 20.44C92.6921 20.8 92.9221 21.04 93.2621 21.16C93.6221 21.28 94.1421 21.36 94.8221 21.4V22C94.3621 21.96 93.7821 21.94 93.0821 21.94C92.4021 21.92 91.7121 21.91 91.0121 21.91C90.2321 21.91 89.5021 21.92 88.8221 21.94C88.1421 21.94 87.5921 21.96 87.1721 22V21.4C87.8521 21.36 88.3621 21.28 88.7021 21.16C89.0621 21.04 89.3021 20.8 89.4221 20.44C89.5421 20.08 89.6021 19.54 89.6021 18.82V3.94C89.6021 3.2 89.5421 2.66 89.4221 2.32C89.3021 1.96 89.0621 1.72 88.7021 1.6C88.3621 1.46 87.8521 1.38 87.1721 1.36V0.76ZM91.9421 11.41C93.0221 11.45 93.8721 11.5 94.4921 11.56C95.1121 11.6 95.6121 11.64 95.9921 11.68C96.3921 11.72 96.7721 11.77 97.1321 11.83C98.4721 12.05 99.4321 12.46 100.012 13.06C100.612 13.64 101.052 14.55 101.332 15.79L102.082 18.85C102.282 19.73 102.482 20.37 102.682 20.77C102.902 21.15 103.232 21.33 103.672 21.31C104.012 21.29 104.292 21.18 104.512 20.98C104.752 20.78 105.002 20.51 105.262 20.17L105.712 20.5C105.292 21.12 104.852 21.6 104.392 21.94C103.952 22.26 103.322 22.42 102.502 22.42C101.762 22.42 101.112 22.2 100.552 21.76C99.9921 21.32 99.5721 20.46 99.2921 19.18L98.6321 16.18C98.4521 15.32 98.2421 14.58 98.0021 13.96C97.7821 13.32 97.4621 12.82 97.0421 12.46C96.6421 12.1 96.0421 11.92 95.2421 11.92H92.0021L91.9421 11.41ZM116.045 0.429999C117.045 0.429999 117.805 0.549999 118.325 0.789999C118.845 1.01 119.305 1.26 119.705 1.54C119.945 1.68 120.135 1.79 120.275 1.87C120.435 1.93 120.585 1.96 120.725 1.96C120.925 1.96 121.065 1.85 121.145 1.63C121.245 1.41 121.325 1.08 121.385 0.64H122.075C122.055 0.979999 122.025 1.39 121.985 1.87C121.965 2.33 121.945 2.95 121.925 3.73C121.925 4.49 121.925 5.5 121.925 6.76H121.235C121.175 5.8 120.965 4.88 120.605 4C120.245 3.12 119.715 2.4 119.015 1.84C118.335 1.28 117.435 0.999999 116.315 0.999999C115.255 0.999999 114.375 1.32 113.675 1.96C112.995 2.6 112.655 3.44 112.655 4.48C112.655 5.38 112.885 6.14 113.345 6.76C113.805 7.36 114.415 7.91 115.175 8.41C115.955 8.89 116.795 9.41 117.695 9.97C118.735 10.61 119.655 11.25 120.455 11.89C121.275 12.51 121.915 13.2 122.375 13.96C122.855 14.72 123.095 15.64 123.095 16.72C123.095 18 122.805 19.06 122.225 19.9C121.645 20.74 120.875 21.37 119.915 21.79C118.955 22.21 117.895 22.42 116.735 22.42C115.675 22.42 114.835 22.3 114.215 22.06C113.595 21.82 113.065 21.57 112.625 21.31C112.185 21.03 111.845 20.89 111.605 20.89C111.405 20.89 111.255 21 111.155 21.22C111.075 21.44 111.005 21.77 110.945 22.21H110.255C110.295 21.79 110.315 21.3 110.315 20.74C110.335 20.16 110.345 19.41 110.345 18.49C110.365 17.57 110.375 16.41 110.375 15.01H111.065C111.145 16.21 111.365 17.33 111.725 18.37C112.105 19.41 112.675 20.25 113.435 20.89C114.215 21.51 115.245 21.82 116.525 21.82C117.185 21.82 117.805 21.69 118.385 21.43C118.985 21.15 119.475 20.72 119.855 20.14C120.235 19.54 120.425 18.77 120.425 17.83C120.425 17.01 120.225 16.3 119.825 15.7C119.445 15.08 118.905 14.51 118.205 13.99C117.505 13.45 116.685 12.9 115.745 12.34C114.805 11.76 113.925 11.17 113.105 10.57C112.285 9.97 111.625 9.28 111.125 8.5C110.645 7.7 110.405 6.74 110.405 5.62C110.405 4.44 110.665 3.47 111.185 2.71C111.725 1.93 112.425 1.36 113.285 0.999999C114.145 0.619999 115.065 0.429999 116.045 0.429999ZM136.476 0.76V1.36C135.796 1.38 135.276 1.46 134.916 1.6C134.576 1.72 134.346 1.96 134.226 2.32C134.106 2.66 134.046 3.2 134.046 3.94V18.82C134.046 19.54 134.106 20.08 134.226 20.44C134.346 20.8 134.576 21.04 134.916 21.16C135.276 21.28 135.796 21.36 136.476 21.4V22C136.016 21.96 135.436 21.94 134.736 21.94C134.056 21.92 133.366 21.91 132.666 21.91C131.886 21.91 131.156 21.92 130.476 21.94C129.796 21.94 129.246 21.96 128.826 22V21.4C129.506 21.36 130.016 21.28 130.356 21.16C130.716 21.04 130.956 20.8 131.076 20.44C131.196 20.08 131.256 19.54 131.256 18.82V3.94C131.256 3.2 131.196 2.66 131.076 2.32C130.956 1.96 130.716 1.72 130.356 1.6C130.016 1.46 129.506 1.38 128.826 1.36V0.76C129.246 0.78 129.796 0.799999 130.476 0.819999C131.156 0.839999 131.886 0.849999 132.666 0.849999C133.366 0.849999 134.056 0.839999 134.736 0.819999C135.436 0.799999 136.016 0.78 136.476 0.76ZM141.992 0.76C142.412 0.78 142.962 0.799999 143.642 0.819999C144.322 0.839999 144.992 0.849999 145.652 0.849999C146.592 0.849999 147.492 0.839999 148.352 0.819999C149.212 0.799999 149.822 0.789999 150.182 0.789999C152.282 0.789999 153.862 1.23 154.922 2.11C155.982 2.99 156.512 4.12 156.512 5.5C156.512 6.2 156.362 6.89 156.062 7.57C155.782 8.23 155.302 8.84 154.622 9.4C153.962 9.94 153.072 10.38 151.952 10.72V10.78C153.532 10.98 154.762 11.36 155.642 11.92C156.542 12.46 157.172 13.1 157.532 13.84C157.892 14.58 158.072 15.36 158.072 16.18C158.072 17.32 157.782 18.33 157.202 19.21C156.642 20.07 155.822 20.75 154.742 21.25C153.662 21.75 152.372 22 150.872 22C150.432 22 149.772 21.99 148.892 21.97C148.012 21.93 146.952 21.91 145.712 21.91C145.012 21.91 144.322 21.92 143.642 21.94C142.962 21.94 142.412 21.96 141.992 22V21.4C142.672 21.36 143.182 21.28 143.522 21.16C143.882 21.04 144.122 20.8 144.242 20.44C144.362 20.08 144.422 19.54 144.422 18.82V3.94C144.422 3.2 144.362 2.66 144.242 2.32C144.122 1.96 143.882 1.72 143.522 1.6C143.182 1.46 142.672 1.38 141.992 1.36V0.76ZM149.432 1.36C148.512 1.36 147.912 1.53 147.632 1.87C147.352 2.21 147.212 2.9 147.212 3.94V18.82C147.212 19.52 147.272 20.05 147.392 20.41C147.512 20.77 147.732 21.01 148.052 21.13C148.372 21.25 148.842 21.31 149.462 21.31C151.422 21.31 152.842 20.86 153.722 19.96C154.622 19.04 155.072 17.74 155.072 16.06C155.072 14.52 154.652 13.33 153.812 12.49C152.992 11.65 151.632 11.23 149.732 11.23H146.642C146.642 11.23 146.642 11.15 146.642 10.99C146.642 10.81 146.642 10.72 146.642 10.72H149.222C150.402 10.72 151.312 10.5 151.952 10.06C152.592 9.6 153.032 9 153.272 8.26C153.512 7.5 153.632 6.69 153.632 5.83C153.632 4.35 153.302 3.24 152.642 2.5C152.002 1.74 150.932 1.36 149.432 1.36ZM171.129 0.76V1.36C170.449 1.38 169.929 1.46 169.569 1.6C169.229 1.72 168.999 1.96 168.879 2.32C168.759 2.66 168.699 3.2 168.699 3.94V18.82C168.699 19.54 168.759 20.08 168.879 20.44C168.999 20.8 169.229 21.04 169.569 21.16C169.929 21.26 170.449 21.31 171.129 21.31H173.319C174.259 21.31 175.019 21.21 175.599 21.01C176.199 20.81 176.669 20.5 177.009 20.08C177.369 19.64 177.639 19.06 177.819 18.34C177.999 17.62 178.139 16.74 178.239 15.7H178.929C178.869 16.32 178.839 17.14 178.839 18.16C178.839 18.54 178.849 19.09 178.869 19.81C178.909 20.51 178.969 21.24 179.049 22C178.029 21.96 176.879 21.94 175.599 21.94C174.319 21.92 173.179 21.91 172.179 21.91C171.739 21.91 171.169 21.91 170.469 21.91C169.789 21.91 169.049 21.92 168.249 21.94C167.449 21.94 166.639 21.95 165.819 21.97C164.999 21.97 164.219 21.98 163.479 22V21.4C164.159 21.36 164.669 21.28 165.009 21.16C165.369 21.04 165.609 20.8 165.729 20.44C165.849 20.08 165.909 19.54 165.909 18.82V3.94C165.909 3.2 165.849 2.66 165.729 2.32C165.609 1.96 165.369 1.72 165.009 1.6C164.669 1.46 164.159 1.38 163.479 1.36V0.76C163.899 0.78 164.449 0.799999 165.129 0.819999C165.809 0.839999 166.539 0.849999 167.319 0.849999C168.019 0.849999 168.709 0.839999 169.389 0.819999C170.089 0.799999 170.669 0.78 171.129 0.76ZM199.085 0.76C199.005 1.46 198.945 2.14 198.905 2.8C198.885 3.46 198.875 3.96 198.875 4.3C198.875 4.66 198.885 5.01 198.905 5.35C198.925 5.67 198.945 5.94 198.965 6.16H198.275C198.155 4.98 197.985 4.05 197.765 3.37C197.545 2.67 197.165 2.18 196.625 1.9C196.105 1.6 195.315 1.45 194.255 1.45H191.765C191.085 1.45 190.565 1.51 190.205 1.63C189.865 1.73 189.635 1.96 189.515 2.32C189.395 2.66 189.335 3.2 189.335 3.94V18.82C189.335 19.54 189.395 20.08 189.515 20.44C189.635 20.8 189.865 21.04 190.205 21.16C190.565 21.26 191.085 21.31 191.765 21.31H193.955C195.215 21.31 196.165 21.14 196.805 20.8C197.465 20.46 197.935 19.91 198.215 19.15C198.515 18.37 198.735 17.32 198.875 16H199.565C199.505 16.54 199.475 17.26 199.475 18.16C199.475 18.54 199.485 19.09 199.505 19.81C199.545 20.51 199.605 21.24 199.685 22C198.665 21.96 197.515 21.94 196.235 21.94C194.955 21.92 193.815 21.91 192.815 21.91C192.375 21.91 191.805 21.91 191.105 21.91C190.425 21.91 189.685 21.92 188.885 21.94C188.085 21.94 187.275 21.95 186.455 21.97C185.635 21.97 184.855 21.98 184.115 22V21.4C184.795 21.36 185.305 21.28 185.645 21.16C186.005 21.04 186.245 20.8 186.365 20.44C186.485 20.08 186.545 19.54 186.545 18.82V3.94C186.545 3.2 186.485 2.66 186.365 2.32C186.245 1.96 186.005 1.72 185.645 1.6C185.305 1.46 184.795 1.38 184.115 1.36V0.76C184.855 0.78 185.635 0.799999 186.455 0.819999C187.275 0.819999 188.085 0.829999 188.885 0.849999C189.685 0.849999 190.425 0.849999 191.105 0.849999C191.805 0.849999 192.375 0.849999 192.815 0.849999C193.735 0.849999 194.775 0.849999 195.935 0.849999C197.115 0.829999 198.165 0.799999 199.085 0.76ZM193.925 11.02C193.925 11.02 193.925 11.12 193.925 11.32C193.925 11.52 193.925 11.62 193.925 11.62H188.435C188.435 11.62 188.435 11.52 188.435 11.32C188.435 11.12 188.435 11.02 188.435 11.02H193.925ZM194.795 7.06C194.715 8.2 194.675 9.07 194.675 9.67C194.695 10.27 194.705 10.82 194.705 11.32C194.705 11.82 194.715 12.37 194.735 12.97C194.755 13.57 194.805 14.44 194.885 15.58H194.195C194.115 14.94 194.015 14.32 193.895 13.72C193.795 13.1 193.555 12.6 193.175 12.22C192.815 11.82 192.195 11.62 191.315 11.62V11.02C191.975 11.02 192.475 10.89 192.815 10.63C193.175 10.35 193.435 10 193.595 9.58C193.755 9.16 193.865 8.73 193.925 8.29C193.985 7.83 194.045 7.42 194.105 7.06H194.795Z" fill="black"></path></svg>