<svg xmlns="http://www.w3.org/2000/svg" width="76" height="76" viewBox="0 0 76 76"><g id="Group_65" data-name="Group 65" transform="translate(-406 -357)"><rect id="Rectangle_74" data-name="Rectangle 74" width="76" height="76" transform="translate(406 357)" fill="#fff" opacity="0"></rect><path id="Path_20" data-name="Path 20" d="M-19.654-1.551a1.437,1.437,0,0,1-.551,1.2,2.4,2.4,0,0,1-1.52.434,3.626,3.626,0,0,1-1.586-.3v-.883a4.311,4.311,0,0,0,.83.289,3.52,3.52,0,0,0,.818.105,1.3,1.3,0,0,0,.818-.211.688.688,0,0,0,.264-.566.71.71,0,0,0-.242-.543,3.646,3.646,0,0,0-1-.527,2.645,2.645,0,0,1-1.1-.723,1.529,1.529,0,0,1-.32-.977,1.368,1.368,0,0,1,.508-1.125,2.106,2.106,0,0,1,1.363-.41,4.006,4.006,0,0,1,1.633.359l-.3.762a3.567,3.567,0,0,0-1.359-.32,1.043,1.043,0,0,0-.687.2.648.648,0,0,0-.234.521.734.734,0,0,0,.094.381.958.958,0,0,0,.309.3,5.22,5.22,0,0,0,.773.371,4.232,4.232,0,0,1,.922.488,1.436,1.436,0,0,1,.43.512A1.539,1.539,0,0,1-19.654-1.551ZM-18.549,0V-5.711h.934V0Zm2.441,0V-5.711h.934V-.8h2.418V0Zm8.84,0h-.937V-2.574h-2.633V0h-.934V-5.711h.934v2.336h2.633V-5.711h.938ZM-.693-2.863A3.124,3.124,0,0,1-1.391-.7,2.522,2.522,0,0,1-3.365.078,2.539,2.539,0,0,1-5.352-.689a3.143,3.143,0,0,1-.693-2.182,3.1,3.1,0,0,1,.7-2.172A2.569,2.569,0,0,1-3.357-5.8a2.517,2.517,0,0,1,1.969.77A3.121,3.121,0,0,1-.693-2.863Zm-4.359,0a2.561,2.561,0,0,0,.426,1.6,1.5,1.5,0,0,0,1.262.545,1.5,1.5,0,0,0,1.256-.539,2.565,2.565,0,0,0,.424-1.605,2.571,2.571,0,0,0-.42-1.594A1.485,1.485,0,0,0-3.357-5a1.516,1.516,0,0,0-1.268.543A2.536,2.536,0,0,0-5.053-2.863ZM5.01-5.711v3.7A2.192,2.192,0,0,1,4.738-.908a1.809,1.809,0,0,1-.785.73A2.729,2.729,0,0,1,2.725.078,2.3,2.3,0,0,1,1.072-.484a2.036,2.036,0,0,1-.59-1.547v-3.68H1.42V-2.1a1.444,1.444,0,0,0,.328,1.043,1.353,1.353,0,0,0,1.008.336q1.32,0,1.32-1.387V-5.711ZM9.7,0H6.471V-5.711H9.7v.789H7.4v1.555H9.557v.781H7.4V-.793H9.7Zm3.207,0h-.934V-4.91h-1.68v-.8h4.293v.8h-1.68Zm4.527,0H16.5V-4.91h-1.68v-.8h4.293v.8h-1.68Zm5.785,0H19.99V-5.711h3.23v.789h-2.3v1.555h2.152v.781H20.924V-.793h2.3Z" transform="translate(444 419)"></path><path id="Silhouette" d="M342,48.28V93.091m9.286-44.811s8.041,12.631.931,23.167,3.22,21.644,3.81,21.644" transform="translate(95.423 313.72)" fill="none" stroke="#000" stroke-linecap="round" stroke-linejoin="round" stroke-width="1.5"></path></g></svg>