<svg xmlns="http://www.w3.org/2000/svg" width="76" height="76" viewBox="0 0 76 76">
  <g id="Group_69" data-name="Group 69" transform="translate(-406 -357)">
    <rect id="Rectangle_74" data-name="Rectangle 74" width="76" height="76" transform="translate(406 357)" fill="#fff" opacity="0"/>
    <path id="Path_24" data-name="Path 24" d="M-19.812-3.984A1.665,1.665,0,0,1-20.4-2.613a2.581,2.581,0,0,1-1.668.477h-.594V0h-.934V-5.711h1.645a2.488,2.488,0,0,1,1.6.438A1.571,1.571,0,0,1-19.812-3.984ZM-22.66-2.922h.5a1.778,1.778,0,0,0,1.055-.25.91.91,0,0,0,.336-.781.886.886,0,0,0-.3-.734,1.486,1.486,0,0,0-.937-.242h-.648ZM-15.441,0h-3.23V-5.711h3.23v.789h-2.3v1.555h2.152v.781h-2.152V-.793h2.3Zm2.168-3.055h.648A1.481,1.481,0,0,0-11.68-3.3a.879.879,0,0,0,.293-.719.774.774,0,0,0-.316-.7,1.735,1.735,0,0,0-.953-.211h-.617Zm0,.773V0h-.934V-5.711h1.613a2.651,2.651,0,0,1,1.637.414,1.487,1.487,0,0,1,.531,1.25,1.562,1.562,0,0,1-1.109,1.52L-9.922,0h-1.062l-1.367-2.281ZM-6.625,0-8.281-4.77h-.031q.066,1.063.066,1.992V0h-.848V-5.711h1.316l1.586,4.543h.023l1.633-4.543h1.32V0h-.9V-2.824q0-.426.021-1.109t.037-.828h-.031L-5.8,0ZM1.832,0l-.57-1.586H-.922L-1.48,0h-.984L-.328-5.734H.688L2.824,0ZM1.016-2.391.48-3.945Q.422-4.1.318-4.437T.176-4.93A8.754,8.754,0,0,1-.133-3.879L-.648-2.391ZM8.336,0H7.191L4.383-4.551H4.352l.02.254q.055.727.055,1.328V0H3.578V-5.711H4.711l2.8,4.527h.023q-.008-.09-.031-.654T7.48-2.719V-5.711h.855Zm4.738,0H9.844V-5.711h3.23v.789h-2.3v1.555H12.93v.781H10.777V-.793h2.3Zm5.992,0H17.922L15.113-4.551h-.031l.02.254q.055.727.055,1.328V0h-.848V-5.711h1.133l2.8,4.527h.023q-.008-.09-.031-.654t-.023-.881V-5.711h.855Zm3.48,0h-.934V-4.91h-1.68v-.8h4.293v.8h-1.68ZM-21.369,5.008a1.539,1.539,0,0,0-1.266.57A2.438,2.438,0,0,0-23.1,7.152a2.454,2.454,0,0,0,.443,1.59,1.566,1.566,0,0,0,1.283.539,3.372,3.372,0,0,0,.7-.072q.34-.072.707-.186v.8a4.287,4.287,0,0,1-1.523.254,2.435,2.435,0,0,1-1.926-.76,3.178,3.178,0,0,1-.672-2.174,3.513,3.513,0,0,1,.326-1.559,2.328,2.328,0,0,1,.943-1.023,2.853,2.853,0,0,1,1.449-.355,3.6,3.6,0,0,1,1.617.367l-.336.777a5.016,5.016,0,0,0-.611-.24A2.2,2.2,0,0,0-21.369,5.008Zm7.711,2.129a3.124,3.124,0,0,1-.7,2.168,2.522,2.522,0,0,1-1.975.773,2.539,2.539,0,0,1-1.986-.768,3.143,3.143,0,0,1-.693-2.182,3.1,3.1,0,0,1,.7-2.172,2.569,2.569,0,0,1,1.99-.758,2.517,2.517,0,0,1,1.969.77A3.121,3.121,0,0,1-13.658,7.137Zm-4.359,0a2.561,2.561,0,0,0,.426,1.6,1.5,1.5,0,0,0,1.262.545,1.5,1.5,0,0,0,1.256-.539,2.565,2.565,0,0,0,.424-1.605,2.571,2.571,0,0,0-.42-1.594A1.485,1.485,0,0,0-16.322,5a1.516,1.516,0,0,0-1.268.543A2.536,2.536,0,0,0-18.018,7.137ZM-12.432,10V4.289h.934V9.2H-9.08V10ZM-8.1,10V4.289h.934V9.2h2.418V10Zm7.566,0H-3.76V4.289h3.23v.789h-2.3V6.633H-.674v.781H-2.826V9.207h2.3ZM3.135,5.008a1.539,1.539,0,0,0-1.266.57,2.438,2.438,0,0,0-.461,1.574,2.454,2.454,0,0,0,.443,1.59,1.566,1.566,0,0,0,1.283.539,3.372,3.372,0,0,0,.7-.072q.34-.072.707-.186v.8a4.287,4.287,0,0,1-1.523.254A2.435,2.435,0,0,1,1.1,9.318,3.178,3.178,0,0,1,.424,7.145,3.513,3.513,0,0,1,.75,5.586a2.328,2.328,0,0,1,.943-1.023,2.853,2.853,0,0,1,1.449-.355,3.6,3.6,0,0,1,1.617.367l-.336.777a5.016,5.016,0,0,0-.611-.24A2.2,2.2,0,0,0,3.135,5.008ZM7.748,10H6.814V5.09H5.135v-.8H9.428v.8H7.748ZM10.3,10V4.289h.934V10Zm7.512-2.863a3.124,3.124,0,0,1-.7,2.168,2.522,2.522,0,0,1-1.975.773,2.539,2.539,0,0,1-1.986-.768,3.143,3.143,0,0,1-.693-2.182,3.1,3.1,0,0,1,.7-2.172A2.569,2.569,0,0,1,15.15,4.2a2.517,2.517,0,0,1,1.969.77A3.121,3.121,0,0,1,17.814,7.137Zm-4.359,0a2.561,2.561,0,0,0,.426,1.6,1.5,1.5,0,0,0,1.262.545A1.5,1.5,0,0,0,16.4,8.742a2.565,2.565,0,0,0,.424-1.605,2.571,2.571,0,0,0-.42-1.594A1.485,1.485,0,0,0,15.15,5a1.516,1.516,0,0,0-1.268.543A2.536,2.536,0,0,0,13.455,7.137ZM23.8,10H22.654L19.846,5.449h-.031l.02.254q.055.727.055,1.328V10h-.848V4.289h1.133l2.8,4.527H23q-.008-.09-.031-.654t-.023-.881V4.289H23.8Z" transform="translate(444 419)"/>
    <path id="Continous" d="M184.924,45.729a7.718,7.718,0,0,1,7.152,0,7.718,7.718,0,0,0,7.152,0m-14.3,43.126a7.718,7.718,0,0,1,7.152,0,7.721,7.721,0,0,0,7.152,0M172.766,55.89a3.6,3.6,0,0,1,4.713,0,3.6,3.6,0,0,0,4.712,0,3.6,3.6,0,0,1,4.712,0,3.6,3.6,0,0,0,4.712,0,3.6,3.6,0,0,1,4.712,0,3.6,3.6,0,0,0,4.713,0,3.6,3.6,0,0,1,4.712,0,3.6,3.6,0,0,0,4.712,0M172.766,78.7a3.6,3.6,0,0,1,4.713,0,3.6,3.6,0,0,0,4.712,0,3.6,3.6,0,0,1,4.712,0,3.6,3.6,0,0,0,4.712,0,3.6,3.6,0,0,1,4.712,0,3.6,3.6,0,0,0,4.713,0,3.6,3.6,0,0,1,4.712,0,3.6,3.6,0,0,0,4.712,0m-40.883-11.4a4.84,4.84,0,0,1,5.561,0,4.84,4.84,0,0,0,5.561,0,4.84,4.84,0,0,1,5.561,0,4.838,4.838,0,0,0,5.56,0,4.84,4.84,0,0,1,5.561,0,4.84,4.84,0,0,0,5.561,0,4.84,4.84,0,0,1,5.561,0,4.84,4.84,0,0,0,5.561,0" transform="translate(252.176 318.267)" fill="none" stroke="#000" stroke-linecap="round" stroke-linejoin="round" stroke-width="1.5"/>
  </g>
</svg>
