<svg xmlns="http://www.w3.org/2000/svg" width="76" height="76" viewBox="0 0 76 76">
  <g id="Group_66" data-name="Group 66" transform="translate(-406 -357)">
    <rect id="Rectangle_74" data-name="Rectangle 74" width="76" height="76" transform="translate(406 357)" fill="#fff" opacity="0"/>
    <path id="Path_19" data-name="Path 19" d="M-10.377,0l-1.656-4.77h-.031Q-12-3.707-12-2.777V0h-.848V-5.711h1.316l1.586,4.543h.023l1.633-4.543h1.32V0h-.9V-2.824q0-.426.021-1.109t.037-.828h-.031L-9.553,0ZM-.986-5.711v3.7A2.192,2.192,0,0,1-1.258-.908a1.809,1.809,0,0,1-.785.73A2.729,2.729,0,0,1-3.271.078,2.3,2.3,0,0,1-4.924-.484a2.036,2.036,0,0,1-.59-1.547v-3.68h.938V-2.1a1.444,1.444,0,0,0,.328,1.043A1.353,1.353,0,0,0-3.24-.719q1.32,0,1.32-1.387V-5.711ZM.475,0V-5.711h.934V-.8H3.826V0ZM6.783,0H5.85V-4.91H4.17v-.8H8.463v.8H6.783ZM9.338,0V-5.711h.934V0Zm1.969-1.754v-.781h2.008v.781Zm-24.8,7.77a1.665,1.665,0,0,1-.586,1.371,2.581,2.581,0,0,1-1.668.477h-.594V10h-.934V4.289h1.645a2.488,2.488,0,0,1,1.6.438A1.571,1.571,0,0,1-13.492,6.016ZM-16.34,7.078h.5a1.778,1.778,0,0,0,1.055-.25.91.91,0,0,0,.336-.781.887.887,0,0,0-.3-.734,1.486,1.486,0,0,0-.937-.242h-.648Zm8.465-2.789v3.7a2.192,2.192,0,0,1-.271,1.107,1.809,1.809,0,0,1-.785.73,2.729,2.729,0,0,1-1.229.256,2.3,2.3,0,0,1-1.652-.562,2.036,2.036,0,0,1-.59-1.547V4.289h.938V7.9a1.444,1.444,0,0,0,.328,1.043,1.353,1.353,0,0,0,1.008.336q1.32,0,1.32-1.387V4.289ZM-5.48,6.945h.648A1.481,1.481,0,0,0-3.887,6.7a.879.879,0,0,0,.293-.719.774.774,0,0,0-.316-.7,1.735,1.735,0,0,0-.953-.211H-5.48Zm0,.773V10h-.934V4.289H-4.8A2.651,2.651,0,0,1-3.164,4.7a1.487,1.487,0,0,1,.531,1.25,1.562,1.562,0,0,1-1.109,1.52L-2.129,10H-3.191L-4.559,7.719Zm7.961-1.7a1.665,1.665,0,0,1-.586,1.371,2.581,2.581,0,0,1-1.668.477H-.367V10H-1.3V4.289H.344a2.488,2.488,0,0,1,1.6.438A1.571,1.571,0,0,1,2.48,6.016ZM-.367,7.078h.5a1.778,1.778,0,0,0,1.055-.25.91.91,0,0,0,.336-.781.887.887,0,0,0-.3-.734A1.486,1.486,0,0,0,.281,5.07H-.367Zm9.059.059a3.124,3.124,0,0,1-.7,2.168,2.522,2.522,0,0,1-1.975.773,2.539,2.539,0,0,1-1.986-.768A3.143,3.143,0,0,1,3.34,7.129a3.1,3.1,0,0,1,.7-2.172A2.569,2.569,0,0,1,6.027,4.2,2.517,2.517,0,0,1,8,4.969,3.121,3.121,0,0,1,8.691,7.137Zm-4.359,0a2.561,2.561,0,0,0,.426,1.6,1.5,1.5,0,0,0,1.262.545,1.5,1.5,0,0,0,1.256-.539A2.565,2.565,0,0,0,7.7,7.137a2.571,2.571,0,0,0-.42-1.594A1.485,1.485,0,0,0,6.027,5a1.516,1.516,0,0,0-1.268.543A2.536,2.536,0,0,0,4.332,7.137Zm8.879,1.313a1.437,1.437,0,0,1-.551,1.2,2.4,2.4,0,0,1-1.52.434,3.626,3.626,0,0,1-1.586-.3V8.895a4.311,4.311,0,0,0,.83.289,3.52,3.52,0,0,0,.818.105,1.3,1.3,0,0,0,.818-.211.688.688,0,0,0,.264-.566.71.71,0,0,0-.242-.543,3.646,3.646,0,0,0-1-.527,2.645,2.645,0,0,1-1.1-.723,1.529,1.529,0,0,1-.32-.977,1.368,1.368,0,0,1,.508-1.125,2.106,2.106,0,0,1,1.363-.41,4.006,4.006,0,0,1,1.633.359l-.3.762a3.567,3.567,0,0,0-1.359-.32,1.043,1.043,0,0,0-.687.2.648.648,0,0,0-.234.521.734.734,0,0,0,.094.381.958.958,0,0,0,.309.3,5.22,5.22,0,0,0,.773.371,4.232,4.232,0,0,1,.922.488,1.436,1.436,0,0,1,.43.512A1.539,1.539,0,0,1,13.211,8.449ZM17.547,10h-3.23V4.289h3.23v.789h-2.3V6.633H17.4v.781H15.25V9.207h2.3Z" transform="translate(444 419)"/>
    <path id="Multi-Purpose" d="M291.392,71.307,279.06,92.67a.451.451,0,0,0,.39.676h24.663a.451.451,0,0,0,.39-.676L292.173,71.307a.451.451,0,0,0-.781,0Zm0-.992L279.06,48.956a.451.451,0,0,1,.39-.676h24.663a.451.451,0,0,1,.39.676L292.173,70.319a.451.451,0,0,1-.781,0Z" transform="translate(152.415 313.72)" fill="none" stroke="#000" stroke-linecap="round" stroke-linejoin="round" stroke-width="1.5"/>
  </g>
</svg>
