<svg xmlns="http://www.w3.org/2000/svg" width="76" height="76" viewBox="0 0 76 76">
  <g id="Group_64" data-name="Group 64" transform="translate(-406 -357)">
    <rect id="Rectangle_74" data-name="Rectangle 74" width="76" height="76" transform="translate(406 357)" fill="#fff" opacity="0"/>
    <path id="Path_21" data-name="Path 21" d="M-20.84-3.055h.648a1.481,1.481,0,0,0,.945-.242.879.879,0,0,0,.293-.719.774.774,0,0,0-.316-.7,1.735,1.735,0,0,0-.953-.211h-.617Zm0,.773V0h-.934V-5.711h1.613a2.651,2.651,0,0,1,1.637.414,1.487,1.487,0,0,1,.531,1.25A1.562,1.562,0,0,1-19.1-2.527L-17.488,0h-1.062l-1.367-2.281ZM-13.43,0h-3.23V-5.711h3.23v.789h-2.3v1.555h2.152v.781h-2.152V-.793h2.3Zm4.488-5.711h.969L-9.973,0h-.984l-1.992-5.711h.961L-10.8-2.16q.094.254.2.654t.137.6q.051-.3.156-.687t.172-.578ZM-3.988,0h-3.23V-5.711h3.23v.789h-2.3v1.555h2.152v.781H-6.285V-.793h2.3ZM-1.82-3.055h.648A1.481,1.481,0,0,0-.227-3.3a.879.879,0,0,0,.293-.719.774.774,0,0,0-.316-.7A1.735,1.735,0,0,0-1.2-4.922H-1.82Zm0,.773V0h-.934V-5.711h1.613A2.651,2.651,0,0,1,.5-5.3a1.487,1.487,0,0,1,.531,1.25A1.562,1.562,0,0,1-.082-2.527L1.531,0H.469L-.9-2.281Zm7.473.73A1.437,1.437,0,0,1,5.1-.355a2.4,2.4,0,0,1-1.52.434A3.626,3.626,0,0,1,2-.223v-.883a4.311,4.311,0,0,0,.83.289,3.52,3.52,0,0,0,.818.105,1.3,1.3,0,0,0,.818-.211.688.688,0,0,0,.264-.566.71.71,0,0,0-.242-.543,3.646,3.646,0,0,0-1-.527,2.645,2.645,0,0,1-1.1-.723,1.529,1.529,0,0,1-.32-.977A1.368,1.368,0,0,1,2.57-5.383a2.106,2.106,0,0,1,1.363-.41,4.006,4.006,0,0,1,1.633.359l-.3.762a3.567,3.567,0,0,0-1.359-.32,1.043,1.043,0,0,0-.687.2.648.648,0,0,0-.234.521.734.734,0,0,0,.094.381.958.958,0,0,0,.309.3,5.22,5.22,0,0,0,.773.371,4.232,4.232,0,0,1,.922.488,1.436,1.436,0,0,1,.43.512A1.539,1.539,0,0,1,5.652-1.551ZM6.758,0V-5.711h.934V0ZM9.2-5.711h1.7a3.218,3.218,0,0,1,1.705.344,1.2,1.2,0,0,1,.525,1.086,1.316,1.316,0,0,1-.258.832,1.153,1.153,0,0,1-.742.418v.039a1.474,1.474,0,0,1,.885.447,1.353,1.353,0,0,1,.283.9,1.466,1.466,0,0,1-.537,1.205A2.31,2.31,0,0,1,11.262,0H9.2Zm.934,2.359h.9a1.538,1.538,0,0,0,.855-.186.711.711,0,0,0,.27-.631.632.632,0,0,0-.291-.582,1.818,1.818,0,0,0-.924-.18h-.809Zm0,.758V-.785h.992a1.46,1.46,0,0,0,.885-.225.829.829,0,0,0,.3-.709.753.753,0,0,0-.3-.66,1.615,1.615,0,0,0-.926-.215ZM14.48,0V-5.711h.934V-.8h2.418V0Zm7.566,0h-3.23V-5.711h3.23v.789h-2.3v1.555H21.9v.781H19.75V-.793h2.3Z" transform="translate(444 419)"/>
    <g id="Reversible" transform="translate(422 362)">
      <path id="Path_6" data-name="Path 6" d="M231.842,55.079,214.219,85.6a.438.438,0,0,0,.379.657h35.247a.438.438,0,0,0,.38-.657L232.6,55.079a.438.438,0,0,0-.759,0Z" transform="translate(-210.115 -54.02)" fill="none" stroke="#000" stroke-linecap="round" stroke-linejoin="round" stroke-width="1.5"/>
      <path id="Path_7" data-name="Path 7" d="M189.817,45.4l-21.693,21.69a.438.438,0,0,0,0,.62L189.817,89.4a.438.438,0,0,0,.62,0l21.687-21.69a.438.438,0,0,0,0-.62L190.43,45.4a.438.438,0,0,0-.62,0Z" transform="translate(-167.996 -45.276)" fill="none" stroke="#000" stroke-linecap="round" stroke-linejoin="round" stroke-width="1.5"/>
    </g>
  </g>
</svg>
