<svg xmlns="http://www.w3.org/2000/svg" width="76" height="76" viewBox="0 0 76 76"><g id="Group_68" data-name="Group 68" transform="translate(-406 -357)"><rect id="Rectangle_74" data-name="Rectangle 74" width="76" height="76" transform="translate(406 357)" fill="#fff" opacity="0"></rect><path id="Path_25" data-name="Path 25" d="M-11.787,0l-.57-1.586h-2.184L-15.1,0h-.984l2.137-5.734h1.016L-10.795,0ZM-12.6-2.391l-.535-1.555Q-13.2-4.1-13.3-4.437t-.143-.492a8.754,8.754,0,0,1-.309,1.051l-.516,1.488ZM-5.4-2.91A2.846,2.846,0,0,1-6.182-.748,3.154,3.154,0,0,1-8.443,0h-1.6V-5.711h1.766a2.921,2.921,0,0,1,2.121.734A2.744,2.744,0,0,1-5.4-2.91Zm-.984.031q0-2.051-1.918-2.051h-.809V-.785h.664A1.837,1.837,0,0,0-6.381-2.879ZM.475-2.91A2.846,2.846,0,0,1-.311-.748,3.154,3.154,0,0,1-2.572,0h-1.6V-5.711H-2.4a2.921,2.921,0,0,1,2.121.734A2.744,2.744,0,0,1,.475-2.91Zm-.984.031q0-2.051-1.918-2.051h-.809V-.785h.664A1.837,1.837,0,0,0-.51-2.879ZM1.229-1.754v-.781H3.236v.781ZM9.346-2.863A3.124,3.124,0,0,1,8.648-.7,2.522,2.522,0,0,1,6.674.078,2.539,2.539,0,0,1,4.688-.689a3.143,3.143,0,0,1-.693-2.182,3.1,3.1,0,0,1,.7-2.172A2.569,2.569,0,0,1,6.682-5.8a2.517,2.517,0,0,1,1.969.77A3.121,3.121,0,0,1,9.346-2.863Zm-4.359,0a2.561,2.561,0,0,0,.426,1.6,1.5,1.5,0,0,0,1.262.545A1.5,1.5,0,0,0,7.93-1.258a2.565,2.565,0,0,0,.424-1.605,2.571,2.571,0,0,0-.42-1.594A1.485,1.485,0,0,0,6.682-5a1.516,1.516,0,0,0-1.268.543A2.536,2.536,0,0,0,4.986-2.863ZM15.33,0H14.186L11.377-4.551h-.031l.02.254q.055.727.055,1.328V0h-.848V-5.711h1.133l2.8,4.527h.023q-.008-.09-.031-.654t-.023-.881V-5.711h.855Z" transform="translate(444.917 420)"></path><path id="Add-Ons" d="M186.041,64.95,170.061,92.624a.451.451,0,0,0,.39.676h31.955a.451.451,0,0,0,.39-.676L186.818,64.95a.451.451,0,0,0-.78,0Zm13.086-16.445L215.1,76.178a.451.451,0,0,1-.39.676H182.76a.451.451,0,0,1-.39-.676l15.977-27.673a.451.451,0,0,1,.78,0Z" transform="translate(251.417 313.72)" fill="none" stroke="#000" stroke-linecap="round" stroke-linejoin="round" stroke-width="1.5"></path></g></svg>