<svg xmlns="http://www.w3.org/2000/svg" width="76" height="76" viewBox="0 0 76 76"><g id="Group_67" data-name="Group 67" transform="translate(-406 -357)"><rect id="Rectangle_74" data-name="Rectangle 74" width="76" height="76" transform="translate(406 357)" fill="#fff" opacity="0"></rect><g id="Colour-Change" transform="translate(421.943 361.907)"><path id="Path_2" data-name="Path 2" d="M4.69,4.69V48.556L48.556,4.69Z" transform="translate(-4.69 -4.69)"></path><path id="Path_3" data-name="Path 3" d="M4.69,4.69V48.556L48.556,4.69Z" transform="translate(-4.69 -4.69)" fill="none" stroke="#000" stroke-linecap="round" stroke-linejoin="round" stroke-width="1"></path><path id="Path_4" data-name="Path 4" d="M228.017,116.877V73.19L184.33,116.877Z" transform="translate(-183.904 -70.785)" fill="none" stroke="#000" stroke-linecap="round" stroke-linejoin="round" stroke-width="1"></path></g><path id="Path_26" data-name="Path 26" d="M-13.342-4.992a1.539,1.539,0,0,0-1.266.57,2.438,2.438,0,0,0-.461,1.574,2.454,2.454,0,0,0,.443,1.59,1.566,1.566,0,0,0,1.283.539,3.372,3.372,0,0,0,.7-.072q.34-.072.707-.186v.8a4.287,4.287,0,0,1-1.523.254,2.435,2.435,0,0,1-1.926-.76,3.178,3.178,0,0,1-.672-2.174,3.513,3.513,0,0,1,.326-1.559,2.328,2.328,0,0,1,.943-1.023,2.853,2.853,0,0,1,1.449-.355,3.6,3.6,0,0,1,1.617.367l-.336.777a5.016,5.016,0,0,0-.611-.24A2.2,2.2,0,0,0-13.342-4.992Zm7.711,2.129A3.124,3.124,0,0,1-6.328-.7,2.522,2.522,0,0,1-8.3.078a2.539,2.539,0,0,1-1.986-.768,3.143,3.143,0,0,1-.693-2.182,3.1,3.1,0,0,1,.7-2.172A2.569,2.569,0,0,1-8.295-5.8a2.517,2.517,0,0,1,1.969.77A3.121,3.121,0,0,1-5.631-2.863Zm-4.359,0a2.561,2.561,0,0,0,.426,1.6A1.5,1.5,0,0,0-8.3-.719a1.5,1.5,0,0,0,1.256-.539,2.565,2.565,0,0,0,.424-1.605,2.571,2.571,0,0,0-.42-1.594A1.485,1.485,0,0,0-8.295-5a1.516,1.516,0,0,0-1.268.543A2.536,2.536,0,0,0-9.99-2.863ZM-4.4,0V-5.711h.934V-.8h2.418V0ZM5-2.863A3.124,3.124,0,0,1,4.3-.7,2.522,2.522,0,0,1,2.33.078,2.539,2.539,0,0,1,.344-.689,3.143,3.143,0,0,1-.35-2.871a3.1,3.1,0,0,1,.7-2.172A2.569,2.569,0,0,1,2.338-5.8a2.517,2.517,0,0,1,1.969.77A3.121,3.121,0,0,1,5-2.863Zm-4.359,0a2.561,2.561,0,0,0,.426,1.6A1.5,1.5,0,0,0,2.33-.719a1.5,1.5,0,0,0,1.256-.539A2.565,2.565,0,0,0,4.01-2.863a2.571,2.571,0,0,0-.42-1.594A1.485,1.485,0,0,0,2.338-5a1.516,1.516,0,0,0-1.268.543A2.536,2.536,0,0,0,.643-2.863ZM10.705-5.711v3.7a2.192,2.192,0,0,1-.271,1.107,1.809,1.809,0,0,1-.785.73A2.729,2.729,0,0,1,8.42.078,2.3,2.3,0,0,1,6.768-.484a2.036,2.036,0,0,1-.59-1.547v-3.68h.938V-2.1a1.444,1.444,0,0,0,.328,1.043,1.353,1.353,0,0,0,1.008.336q1.32,0,1.32-1.387V-5.711ZM13.1-3.055h.648a1.481,1.481,0,0,0,.945-.242.879.879,0,0,0,.293-.719.774.774,0,0,0-.316-.7,1.735,1.735,0,0,0-.953-.211H13.1Zm0,.773V0h-.934V-5.711h1.613a2.651,2.651,0,0,1,1.637.414,1.487,1.487,0,0,1,.531,1.25,1.562,1.562,0,0,1-1.109,1.52L16.451,0H15.389L14.021-2.281ZM-13.27,5.008a1.539,1.539,0,0,0-1.266.57A2.438,2.438,0,0,0-15,7.152a2.454,2.454,0,0,0,.443,1.59,1.566,1.566,0,0,0,1.283.539,3.372,3.372,0,0,0,.7-.072q.34-.072.707-.186v.8a4.287,4.287,0,0,1-1.523.254,2.435,2.435,0,0,1-1.926-.76,3.178,3.178,0,0,1-.672-2.174,3.513,3.513,0,0,1,.326-1.559,2.328,2.328,0,0,1,.943-1.023,2.853,2.853,0,0,1,1.449-.355,3.6,3.6,0,0,1,1.617.367l-.336.777a5.016,5.016,0,0,0-.611-.24A2.2,2.2,0,0,0-13.27,5.008ZM-6.125,10h-.937V7.426H-9.7V10h-.934V4.289H-9.7V6.625h2.633V4.289h.938Zm5.047,0-.57-1.586H-3.832L-4.391,10h-.984l2.137-5.734h1.016L-.086,10Zm-.816-2.391L-2.43,6.055q-.059-.156-.162-.492t-.143-.492a8.754,8.754,0,0,1-.309,1.051l-.516,1.488ZM5.426,10H4.281L1.473,5.449H1.441l.02.254q.055.727.055,1.328V10H.668V4.289H1.8L4.6,8.816h.023q-.008-.09-.031-.654T4.57,7.281V4.289h.855ZM9.27,6.9h2.1V9.77a6.082,6.082,0,0,1-.99.238,7.01,7.01,0,0,1-1.025.07,2.576,2.576,0,0,1-2-.768,3.091,3.091,0,0,1-.7-2.166,2.888,2.888,0,0,1,.793-2.158,2.981,2.981,0,0,1,2.184-.779,4.252,4.252,0,0,1,1.7.344L11,5.328a3.3,3.3,0,0,0-1.391-.32,1.873,1.873,0,0,0-1.445.574,2.222,2.222,0,0,0-.531,1.57,2.344,2.344,0,0,0,.479,1.592,1.735,1.735,0,0,0,1.377.545,4.526,4.526,0,0,0,.969-.113V7.7H9.27Zm6.7,3.1h-3.23V4.289h3.23v.789h-2.3V6.633h2.152v.781H13.676V9.207h2.3Z" transform="translate(442.943 419)"></path></g></svg>