<svg xmlns="http://www.w3.org/2000/svg" width="76" height="76" viewBox="0 0 76 76">
  <g id="Group_70" data-name="Group 70" transform="translate(-406 -357)">
    <rect id="Rectangle_74" data-name="Rectangle 74" width="76" height="76" transform="translate(406 357)" fill="#fff" opacity="0"/>
    <path id="Path_23" data-name="Path 23" d="M-16.309,0h-3.23V-5.711h3.23v.789h-2.3v1.555h2.152v.781h-2.152V-.793h2.3Zm4.527-1.551a1.437,1.437,0,0,1-.551,1.2,2.4,2.4,0,0,1-1.52.434,3.626,3.626,0,0,1-1.586-.3v-.883a4.311,4.311,0,0,0,.83.289,3.52,3.52,0,0,0,.818.105,1.3,1.3,0,0,0,.818-.211.688.688,0,0,0,.264-.566.71.71,0,0,0-.242-.543,3.646,3.646,0,0,0-1-.527,2.645,2.645,0,0,1-1.1-.723,1.529,1.529,0,0,1-.32-.977,1.368,1.368,0,0,1,.508-1.125,2.106,2.106,0,0,1,1.363-.41,4.006,4.006,0,0,1,1.633.359l-.3.762a3.567,3.567,0,0,0-1.359-.32,1.043,1.043,0,0,0-.687.2.648.648,0,0,0-.234.521.734.734,0,0,0,.094.381.958.958,0,0,0,.309.3,5.22,5.22,0,0,0,.773.371,4.232,4.232,0,0,1,.922.488,1.436,1.436,0,0,1,.43.512A1.539,1.539,0,0,1-11.781-1.551Zm4.4,0a1.437,1.437,0,0,1-.551,1.2,2.4,2.4,0,0,1-1.52.434,3.626,3.626,0,0,1-1.586-.3v-.883a4.311,4.311,0,0,0,.83.289,3.52,3.52,0,0,0,.818.105,1.3,1.3,0,0,0,.818-.211.688.688,0,0,0,.264-.566.71.71,0,0,0-.242-.543,3.646,3.646,0,0,0-1-.527,2.645,2.645,0,0,1-1.1-.723,1.529,1.529,0,0,1-.32-.977,1.368,1.368,0,0,1,.508-1.125A2.106,2.106,0,0,1-9.1-5.793a4.006,4.006,0,0,1,1.633.359l-.3.762a3.567,3.567,0,0,0-1.359-.32,1.043,1.043,0,0,0-.687.2.648.648,0,0,0-.234.521.734.734,0,0,0,.094.381.958.958,0,0,0,.309.3,5.22,5.22,0,0,0,.773.371,4.232,4.232,0,0,1,.922.488,1.436,1.436,0,0,1,.43.512A1.539,1.539,0,0,1-7.383-1.551ZM-3.047,0h-3.23V-5.711h3.23v.789h-2.3v1.555h2.152v.781H-5.344V-.793h2.3ZM2.945,0H1.8L-1.008-4.551h-.031l.02.254q.055.727.055,1.328V0h-.848V-5.711H-.68l2.8,4.527h.023q-.008-.09-.031-.654T2.09-2.719V-5.711h.855Zm3.48,0H5.492V-4.91H3.813v-.8H8.105v.8H6.426ZM8.98,0V-5.711h.934V0Zm5.984,0-.57-1.586H12.211L11.652,0h-.984L12.8-5.734H13.82L15.957,0Zm-.816-2.391-.535-1.555q-.059-.156-.162-.492t-.143-.492A8.754,8.754,0,0,1,13-3.879l-.516,1.488ZM16.711,0V-5.711h.934V-.8h2.418V0Z" transform="translate(444 419)"/>
    <path id="Essential" d="M171.13,77.243a22.313,22.313,0,0,0,1.385,3.517M197.4,49.005A22.38,22.38,0,0,0,171.13,77.243m4.332,8.012a22.364,22.364,0,1,0,27.587-34.17" transform="translate(251.3 313.797)" fill="none" stroke="#000" stroke-linecap="round" stroke-linejoin="round" stroke-width="1.5"/>
  </g>
</svg>
