<svg xmlns="http://www.w3.org/2000/svg" width="76" height="76" viewBox="0 0 76 76">
  <g id="Group_71" data-name="Group 71" transform="translate(-406 -357)">
    <rect id="Rectangle_74" data-name="Rectangle 74" width="76" height="76" transform="translate(406 357)" fill="#fff" opacity="0"/>
    <path id="Path_22" data-name="Path 22" d="M-11.156-1.551a1.437,1.437,0,0,1-.551,1.2,2.4,2.4,0,0,1-1.52.434,3.626,3.626,0,0,1-1.586-.3v-.883a4.311,4.311,0,0,0,.83.289,3.52,3.52,0,0,0,.818.105,1.3,1.3,0,0,0,.818-.211.688.688,0,0,0,.264-.566.71.71,0,0,0-.242-.543,3.646,3.646,0,0,0-1-.527,2.645,2.645,0,0,1-1.1-.723,1.529,1.529,0,0,1-.32-.977,1.368,1.368,0,0,1,.508-1.125,2.106,2.106,0,0,1,1.363-.41,4.006,4.006,0,0,1,1.633.359l-.3.762a3.567,3.567,0,0,0-1.359-.32,1.043,1.043,0,0,0-.687.2.648.648,0,0,0-.234.521.734.734,0,0,0,.094.381.958.958,0,0,0,.309.3,5.22,5.22,0,0,0,.773.371,4.232,4.232,0,0,1,.922.488,1.436,1.436,0,0,1,.43.512A1.539,1.539,0,0,1-11.156-1.551ZM-4.98-2.863A3.124,3.124,0,0,1-5.678-.7,2.522,2.522,0,0,1-7.652.078,2.539,2.539,0,0,1-9.639-.689a3.143,3.143,0,0,1-.693-2.182,3.1,3.1,0,0,1,.7-2.172A2.569,2.569,0,0,1-7.645-5.8a2.517,2.517,0,0,1,1.969.77A3.121,3.121,0,0,1-4.98-2.863Zm-4.359,0a2.561,2.561,0,0,0,.426,1.6,1.5,1.5,0,0,0,1.262.545A1.5,1.5,0,0,0-6.4-1.258a2.565,2.565,0,0,0,.424-1.605,2.571,2.571,0,0,0-.42-1.594A1.485,1.485,0,0,0-7.645-5a1.516,1.516,0,0,0-1.268.543A2.536,2.536,0,0,0-9.34-2.863Zm8.016-2.129a1.539,1.539,0,0,0-1.266.57,2.438,2.438,0,0,0-.461,1.574,2.454,2.454,0,0,0,.443,1.59,1.566,1.566,0,0,0,1.283.539,3.372,3.372,0,0,0,.7-.072q.34-.072.707-.186v.8A4.287,4.287,0,0,1-1.437.078a2.435,2.435,0,0,1-1.926-.76,3.178,3.178,0,0,1-.672-2.174,3.513,3.513,0,0,1,.326-1.559,2.328,2.328,0,0,1,.943-1.023,2.853,2.853,0,0,1,1.449-.355A3.6,3.6,0,0,1,.3-5.426l-.336.777a5.016,5.016,0,0,0-.611-.24A2.2,2.2,0,0,0-1.324-4.992ZM1.316,0V-5.711H2.25V0ZM7.3,0,6.73-1.586H4.547L3.988,0H3L5.141-5.734H6.156L8.293,0ZM6.484-2.391,5.949-3.945q-.059-.156-.162-.492T5.645-4.93a8.755,8.755,0,0,1-.309,1.051L4.82-2.391ZM9.047,0V-5.711H9.98V-.8H12.4V0ZM12.91-1.754v-.781h2.008v.781Zm-41.033,8.7h.648a1.481,1.481,0,0,0,.945-.242.879.879,0,0,0,.293-.719.774.774,0,0,0-.316-.7,1.735,1.735,0,0,0-.953-.211h-.617Zm0,.773V10h-.934V4.289h1.613a2.651,2.651,0,0,1,1.637.414,1.487,1.487,0,0,1,.531,1.25,1.562,1.562,0,0,1-1.109,1.52L-24.771,10h-1.062L-27.2,7.719ZM-20.713,10h-3.23V4.289h3.23v.789h-2.3V6.633h2.152v.781H-23.01V9.207h2.3Zm4.527-1.551a1.437,1.437,0,0,1-.551,1.2,2.4,2.4,0,0,1-1.52.434,3.626,3.626,0,0,1-1.586-.3V8.895a4.311,4.311,0,0,0,.83.289,3.52,3.52,0,0,0,.818.105,1.3,1.3,0,0,0,.818-.211.688.688,0,0,0,.264-.566.71.71,0,0,0-.242-.543,3.646,3.646,0,0,0-1-.527,2.645,2.645,0,0,1-1.1-.723,1.529,1.529,0,0,1-.32-.977,1.368,1.368,0,0,1,.508-1.125,2.106,2.106,0,0,1,1.363-.41,4.006,4.006,0,0,1,1.633.359l-.3.762a3.567,3.567,0,0,0-1.359-.32,1.043,1.043,0,0,0-.687.2.648.648,0,0,0-.234.521.734.734,0,0,0,.094.381.958.958,0,0,0,.309.3,5.22,5.22,0,0,0,.773.371,4.232,4.232,0,0,1,.922.488,1.436,1.436,0,0,1,.43.512A1.539,1.539,0,0,1-16.186,8.449ZM-11.3,6.016a1.665,1.665,0,0,1-.586,1.371,2.581,2.581,0,0,1-1.668.477h-.594V10h-.934V4.289h1.645a2.488,2.488,0,0,1,1.6.438A1.571,1.571,0,0,1-11.3,6.016Zm-2.848,1.063h.5a1.778,1.778,0,0,0,1.055-.25.91.91,0,0,0,.336-.781.887.887,0,0,0-.3-.734A1.486,1.486,0,0,0-13.5,5.07h-.648Zm9.059.059a3.124,3.124,0,0,1-.7,2.168,2.522,2.522,0,0,1-1.975.773,2.539,2.539,0,0,1-1.986-.768,3.143,3.143,0,0,1-.693-2.182,3.1,3.1,0,0,1,.7-2.172A2.569,2.569,0,0,1-7.752,4.2a2.517,2.517,0,0,1,1.969.77A3.121,3.121,0,0,1-5.088,7.137Zm-4.359,0a2.561,2.561,0,0,0,.426,1.6,1.5,1.5,0,0,0,1.262.545A1.5,1.5,0,0,0-6.5,8.742,2.565,2.565,0,0,0-6.08,7.137,2.571,2.571,0,0,0-6.5,5.543,1.485,1.485,0,0,0-7.752,5a1.516,1.516,0,0,0-1.268.543A2.536,2.536,0,0,0-9.447,7.137ZM.9,10H-.248L-3.057,5.449h-.031l.02.254q.055.727.055,1.328V10h-.848V4.289h1.133l2.8,4.527H.1q-.008-.09-.031-.654T.041,7.281V4.289H.9ZM5.7,8.449a1.437,1.437,0,0,1-.551,1.2,2.4,2.4,0,0,1-1.52.434,3.626,3.626,0,0,1-1.586-.3V8.895a4.311,4.311,0,0,0,.83.289,3.52,3.52,0,0,0,.818.105,1.3,1.3,0,0,0,.818-.211.688.688,0,0,0,.264-.566.71.71,0,0,0-.242-.543,3.646,3.646,0,0,0-1-.527,2.645,2.645,0,0,1-1.1-.723,1.529,1.529,0,0,1-.32-.977,1.368,1.368,0,0,1,.508-1.125,2.106,2.106,0,0,1,1.363-.41,4.006,4.006,0,0,1,1.633.359l-.3.762a3.567,3.567,0,0,0-1.359-.32,1.043,1.043,0,0,0-.687.2.648.648,0,0,0-.234.521.734.734,0,0,0,.094.381.958.958,0,0,0,.309.3,5.22,5.22,0,0,0,.773.371,4.232,4.232,0,0,1,.922.488,1.436,1.436,0,0,1,.43.512A1.539,1.539,0,0,1,5.7,8.449ZM6.8,10V4.289h.934V10ZM9.244,4.289h1.7a3.218,3.218,0,0,1,1.705.344,1.2,1.2,0,0,1,.525,1.086,1.316,1.316,0,0,1-.258.832,1.153,1.153,0,0,1-.742.418v.039a1.474,1.474,0,0,1,.885.447,1.353,1.353,0,0,1,.283.9A1.466,1.466,0,0,1,12.8,9.564,2.31,2.31,0,0,1,11.307,10H9.244Zm.934,2.359h.9a1.538,1.538,0,0,0,.855-.186.711.711,0,0,0,.27-.631.632.632,0,0,0-.291-.582,1.818,1.818,0,0,0-.924-.18h-.809Zm0,.758V9.215h.992a1.46,1.46,0,0,0,.885-.225.829.829,0,0,0,.3-.709.753.753,0,0,0-.3-.66,1.615,1.615,0,0,0-.926-.215ZM14.525,10V4.289h.934V10Zm2.441,0V4.289H17.9V9.2h2.418V10Zm6.309,0h-.934V5.09h-1.68v-.8h4.293v.8h-1.68Zm4.168-3.105,1.352-2.605h1.016l-1.9,3.5V10h-.937V7.816L25.076,4.289h1.016Z" transform="translate(444 419)"/>
    <path id="Social-Responsibilty" d="M187.774,64.326V91.942m.232-27.919a8.391,8.391,0,1,0-8.391-8.391A8.391,8.391,0,0,0,188.006,64.022ZM165,60.59s9.153,14.508,23.006,14.676,22.542-14.7,22.542-14.7" transform="translate(256.226 315.058)" fill="none" stroke="#000" stroke-linecap="round" stroke-linejoin="round" stroke-width="1.5"/>
  </g>
</svg>
