<svg xmlns="http://www.w3.org/2000/svg" width="1028.42" height="113.534" viewBox="0 0 1028.42 113.534"><g id="Whilte_SVG_AV_writing_logo" data-name="Whilte SVG AV writing logo" transform="translate(-0.798 -163.228)"><g id="Group_3" data-name="Group 3" transform="translate(0.798 163.228)"><path id="Path_1" data-name="Path 1" d="M69.63,70.68H25.149L7.172,111.095H.789L49.671,1.228h3.416l47.066,109.867H86.945Zm-2.5-5.831-19.323-45.1L27.743,64.854Z" transform="translate(-0.789 -1.228)"></path><path id="Path_2" data-name="Path 2" d="M172.808,114.086h-3.466L85.1,20.783v90.312H79.269V1.228h3.468l84.242,93.3V3.318h5.828Z" transform="translate(48.986 -1.228)"></path><path id="Path_3" data-name="Path 3" d="M160.371,2.507h12.278V110.284H160.371Z" transform="translate(100.425 -0.417)"></path><path id="Path_4" data-name="Path 4" d="M268.44,8.338h-33.2V110.284H222.959V8.338H189.748V2.507H268.44Z" transform="translate(119.057 -0.417)"></path><path id="Path_5" data-name="Path 5" d="M308,70.68H263.522l-17.977,40.415h-6.374L288.041,1.228h3.417l47.066,109.867H325.311Zm-2.5-5.831L286.181,19.744,266.116,64.849Z" transform="translate(150.404 -1.228)"></path></g><g id="Group_4" data-name="Group 4" transform="translate(570.417 166.887)"><path id="Path_6" data-name="Path 6" d="M448.706,3.469,399.828,113.341h-3.42L349.341,3.476h13.213L401.692,94.82,442.326,3.469Z" transform="translate(-349.341 -3.466)"></path><path id="Path_7" data-name="Path 7" d="M430.858,3.467h12.276V111.244H430.858Z" transform="translate(-297.639 -3.467)"></path><path id="Path_8" data-name="Path 8" d="M538.092,9.3H504.881V111.244H492.6V9.3H459.4V3.467h78.7Z" transform="translate(-279.537 -3.467)"></path><path id="Path_9" data-name="Path 9" d="M539.86,9.3V52.02h37.781V57.86H539.86V105.5h42.376v5.746H527.594V3.467h54.651V9.3Z" transform="translate(-236.285 -3.467)"></path><path id="Path_10" data-name="Path 10" d="M581.837,3.467h12.278V111.244H581.837Zm78.846,107.777H644.551L597.058,55.516,647.767,3.467H655.9L609.462,51.146Z" transform="translate(-201.882 -3.467)"></path></g></g></svg>