<svg xmlns="http://www.w3.org/2000/svg" width="629.294" height="69.468" viewBox="0 0 629.294 69.468"><g id="Whilte_SVG_AV_writing_logo" data-name="Whilte SVG AV writing logo" transform="translate(-0.798 -163.228)"><g id="Group_3" data-name="Group 3" transform="translate(0.009 162)"><path id="Path_1" data-name="Path 1" d="M42.913,43.726H15.695l-11,24.73H.789L30.7,1.228H32.79l28.8,67.228H53.508Zm-1.529-3.568L29.56,12.561l-12.278,27.6Z" fill="#fff"></path><path id="Path_2" data-name="Path 2" d="M136.506,70.286h-2.121L82.836,13.194V68.456H79.269V1.228h2.122L132.939,58.32V2.507h3.566Z" fill="#fff"></path><path id="Path_3" data-name="Path 3" d="M160.371,2.507h7.513V68.456h-7.513Z" fill="#fff"></path><path id="Path_4" data-name="Path 4" d="M237.9,6.075H217.583V68.456H210.07V6.075H189.748V2.507H237.9Z" fill="#fff"></path><path id="Path_5" data-name="Path 5" d="M281.289,43.726H254.072l-11,24.73h-3.9L269.075,1.228h2.091l28.8,67.228h-8.085Zm-1.528-3.568-11.824-27.6-12.278,27.6Z" fill="#fff"></path></g><g id="Group_4" data-name="Group 4" transform="translate(0.009 162)"><path id="Path_6" data-name="Path 6" d="M410.143,3.469,380.234,70.7h-2.093l-28.8-67.227h8.085l23.949,55.894L406.239,3.469Z" fill="#fff"></path><path id="Path_7" data-name="Path 7" d="M430.858,3.467h7.512V69.416h-7.512Z" fill="#fff"></path><path id="Path_8" data-name="Path 8" d="M507.552,7.035H487.23V69.416h-7.512V7.035H459.4V3.467h48.156Z" fill="#fff"></path><path id="Path_9" data-name="Path 9" d="M535.1,7.035V33.177h23.118V36.75H535.1V65.9h25.93v3.516H527.594V3.467h33.441V7.035Z" fill="#fff"></path><path id="Path_10" data-name="Path 10" d="M581.837,3.467h7.513V69.416h-7.513Zm48.246,65.949h-9.871l-29.061-34.1L622.18,3.467h4.979L598.741,32.642Z" fill="#fff"></path></g></g></svg>